<?xml version="1.0" encoding="UTF-8"?>
<!DOCTYPE svg PUBLIC "-//W3C//DTD SVG 1.1//EN" "http://www.w3.org/Graphics/SVG/1.1/DTD/svg11.dtd">
<!-- Creator: CorelDRAW 2018 (64 Bit Versão de avaliação) -->
<svg xmlns="http://www.w3.org/2000/svg" xml:space="preserve" width="200px" height="200px" version="1.1" style="shape-rendering:geometricPrecision; text-rendering:geometricPrecision; image-rendering:optimizeQuality; fill-rule:evenodd; clip-rule:evenodd"
viewBox="0 0 119.12 119.12"
 xmlns:xlink="http://www.w3.org/1999/xlink">
 <defs>
  <style type="text/css">
   <![CDATA[
    .fil0 {fill:none}
    .fil2 {fill:#0F4069}
    .fil1 {fill:#00F2A9;fill-rule:nonzero}
   ]]>
  </style>
 </defs>
 <g id="Camada_x0020_1">
  <metadata id="CorelCorpID_0Corel-Layer"/>
  <g id="_2590628886416">
   <rect class="fil0" width="119.12" height="119.12"/>
   <g>
    <path class="fil1" d="M96.58 25.91c0,-3.7 -3.03,-6.73 -6.73,-6.73l-60.58 0c-3.7,0 -6.73,3.03 -6.73,6.73l0 13.46 74.04 0 0 -13.46z"/>
    <path class="fil2" d="M71.26 84.93l10.29 0c0.87,0 1.57,0.7 1.57,1.57l0 0c0,0.86 -0.7,1.56 -1.57,1.56l-10.29 0c-0.86,0 -1.57,-0.7 -1.57,-1.56l0 0c0,-0.87 0.71,-1.57 1.57,-1.57zm-47.04 -65.75c0,-2.86 2.19,-5.05 5.05,-5.05l60.58 0c2.86,0 5.05,2.19 5.05,5.05l0 11.78 -70.68 0 0 -11.78zm17.34 -1.18l-6.73 6.73c-0.68,0.67 -0.68,1.68 0,2.36 0.33,0.33 0.84,0.5 1.17,0.5 0.34,0 0.84,-0.17 1.18,-0.5l6.73 -6.74c0.68,-0.67 0.68,-1.68 0,-2.35 -0.67,-0.67 -1.68,-0.67 -2.35,0zm-4.38 0c-0.67,-0.67 -1.68,-0.67 -2.35,0l-6.74 6.73c-0.67,0.67 -0.67,1.68 0,2.36 0.34,0.33 0.85,0.5 1.18,0.5 0.34,0 0.84,-0.17 1.18,-0.5l6.73 -6.74c0.67,-0.67 0.67,-1.68 0,-2.35zm11.78 62.26c-0.67,-0.67 -1.68,-0.67 -2.36,0l-3.87 3.87 -3.87 -3.87c-0.67,-0.67 -1.68,-0.67 -2.35,0 -0.67,0.67 -0.67,1.68 0,2.36l3.87 3.87 -3.87 3.87c-0.67,0.67 -0.67,1.68 0,2.35 0.33,0.34 0.84,0.51 1.18,0.51 0.33,0 0.84,-0.17 1.17,-0.51l3.87 -3.87 3.87 3.87c0.34,0.34 0.85,0.51 1.18,0.51 0.34,0 0.84,-0.17 1.18,-0.51 0.67,-0.67 0.67,-1.68 0,-2.35l-3.87 -3.87 3.87 -3.87c0.67,-0.68 0.67,-1.69 0,-2.36zm32.48 -29.11l-10.1 0c-1.01,0 -1.68,0.67 -1.68,1.68 0,1.01 0.67,1.68 1.68,1.68l10.1 0c1.01,0 1.68,-0.67 1.68,-1.68 0,-1.01 -0.67,-1.68 -1.68,-1.68zm-33.66 0l-3.36 0 0 -3.37c0,-1.01 -0.68,-1.68 -1.69,-1.68 -1.01,0 -1.68,0.67 -1.68,1.68l0 3.37 -3.36 0c-1.01,0 -1.69,0.67 -1.69,1.68 0,1.01 0.68,1.68 1.69,1.68l3.36 0 0 3.37c0,1.01 0.67,1.68 1.68,1.68 1.01,0 1.69,-0.67 1.69,-1.68l0 -3.37 3.36 0c1.01,0 1.69,-0.67 1.69,-1.68 0,-1.01 -0.68,-1.68 -1.69,-1.68zm-16.82 23.56l23.55 0 0 23.56 -23.55 0 0 -23.56zm0 26.92l23.55 0c1.85,0 3.37,-1.51 3.37,-3.36l0 -23.56c0,-1.85 -1.52,-3.37 -3.37,-3.37l-23.55 0c-1.86,0 -3.37,1.52 -3.37,3.37l0 23.56c0,1.85 1.51,3.36 3.37,3.36zm33.65 -26.92l23.56 0 0 23.56 -23.56 0 0 -23.56zm0 26.92l23.56 0c1.85,0 3.36,-1.51 3.36,-3.36l0 -23.56c0,-1.85 -1.51,-3.37 -3.36,-3.37l-23.56 0c-1.85,0 -3.37,1.52 -3.37,3.37l0 23.56c0,1.85 1.52,3.36 3.37,3.36zm0 -60.58l23.56 0 0 23.56 -23.56 0 0 -23.56zm0 26.93l23.56 0c1.85,0 3.36,-1.52 3.36,-3.37l0 -23.56c0,-1.85 -1.51,-3.36 -3.36,-3.36l-23.56 0c-1.85,0 -3.37,1.51 -3.37,3.36l0 23.56c0,1.85 1.52,3.37 3.37,3.37zm-33.65 -26.93l23.55 0 0 23.56 -23.55 0 0 -23.56zm0 26.93l23.55 0c1.85,0 3.37,-1.52 3.37,-3.37l0 -23.56c0,-1.85 -1.52,-3.36 -3.37,-3.36l-23.55 0c-1.86,0 -3.37,1.51 -3.37,3.36l0 23.56c0,1.85 1.51,3.37 3.37,3.37zm63.94 31.97c0,2.86 -2.19,5.05 -5.05,5.05l-60.58 0c-2.86,0 -5.05,-2.19 -5.05,-5.05l0 -65.63 70.68 0 0 65.63zm-65.63 8.41l60.58 0c4.71,0 8.41,-3.7 8.41,-8.41l0 -80.77c0,-4.72 -3.7,-8.42 -8.41,-8.42l-60.58 0c-4.71,0 -8.41,3.7 -8.41,8.42l0 80.77c0,4.71 3.7,8.41 8.41,8.41zm47.14 -30.13c1.66,0 3.01,1.35 3.01,3.01 0,1.67 -1.35,3.02 -3.01,3.02 -1.67,0 -3.02,-1.35 -3.02,-3.02 0,-1.66 1.35,-3.01 3.02,-3.01zm0 10.5c1.66,0 3.01,1.35 3.01,3.02 0,1.66 -1.35,3.01 -3.01,3.01 -1.67,0 -3.02,-1.35 -3.02,-3.01 0,-1.67 1.35,-3.02 3.02,-3.02z"/>
   </g>
  </g>
 </g>
</svg>
