<?xml version="1.0" encoding="UTF-8"?>
<!DOCTYPE svg PUBLIC "-//W3C//DTD SVG 1.1//EN" "http://www.w3.org/Graphics/SVG/1.1/DTD/svg11.dtd">
<!-- Creator: CorelDRAW 2018 (64 Bit Versão de avaliação) -->
<svg xmlns="http://www.w3.org/2000/svg" xml:space="preserve" width="200px" height="200px" version="1.1" style="shape-rendering:geometricPrecision; text-rendering:geometricPrecision; image-rendering:optimizeQuality; fill-rule:evenodd; clip-rule:evenodd"
viewBox="0 0 102.08 102.08"
 xmlns:xlink="http://www.w3.org/1999/xlink">
 <defs>
  <style type="text/css">
   <![CDATA[
    .fil0 {fill:none}
    .fil1 {fill:#00F2A9;fill-rule:nonzero}
    .fil2 {fill:#0F4069;fill-rule:nonzero}
   ]]>
  </style>
 </defs>
 <g id="Camada_x0020_1">
  <metadata id="CorelCorpID_0Corel-Layer"/>
  <g id="_2590435728144">
   <rect class="fil0" width="102.08" height="102.08"/>
   <g>
    <polygon class="fil1" points="45.7,70.4 88.43,17 67.06,91.76 "/>
    <polygon class="fil1" points="35.02,65.06 13.66,54.38 88.43,17 "/>
    <path class="fil2" d="M87.09 43.43c0.14,-0.67 0.94,-1.2 1.6,-0.93 0.67,0.13 1.21,0.93 0.94,1.6l-5.34 21.36c0,0.54 -0.67,0.94 -1.2,0.94 -0.14,0 -0.27,0 -0.27,0 -0.67,-0.14 -1.2,-0.94 -0.94,-1.61l5.21 -21.36zm-52.34 14.69l45.4 -40.86 -63.56 31.78 18.16 9.08zm11.62 9.61l-2.94 11.62 5.74 -8.68 -2.8 -2.94zm20.03 16.16l18.96 -66.23 -37.79 47.27 18.83 18.96zm-25.91 -3.61l3.88 -15.49 0 0c0,-0.13 0.13,-0.26 0.13,-0.4l0 -0.13 32.71 -40.72 -40.72 36.58 4 20.16zm-27.37 -32.44l74.77 -37.39 0.14 0 0.13 -0.13c0.13,0 0.27,0 0.27,0 0.13,0 0.13,0 0.26,0 0.14,0 0.14,0 0.27,0.13l0.13 0c0,0 0,0 0.14,0l0.13 0.14 0.13 0.13 0 0.13c0,0.14 0.14,0.14 0.14,0.27 0,0.13 0,0.13 0,0.27 0.13,0.13 0.13,0.26 0.13,0.26 0,0.14 0,0.14 0,0.27l0 0.14 -21.36 74.76c-0.13,0.41 -0.53,0.81 -0.94,0.94 -0.13,0 -0.26,0 -0.4,0 -0.4,0 -0.66,-0.13 -0.93,-0.4l-14.82 -14.82 -9.75 14.69c-0.13,0.13 -0.13,0.26 -0.26,0.26 0,0 0,0 -0.14,0 -0.13,0 -0.13,0.14 -0.27,0.14l-0.13 0c-0.13,0 -0.27,0 -0.4,0l0 0c0,0 0,0 -0.13,0 -0.14,0 -0.27,0 -0.27,0 0,0 -0.13,0 -0.13,-0.14 0,0 -0.14,0 -0.14,-0.13l0 0c-0.13,-0.13 -0.13,-0.13 -0.26,-0.27 0,0 0,-0.13 -0.14,-0.13 -0.13,-0.14 -0.13,-0.27 -0.13,-0.4l0 0 -5.21 -26.04 -20.83 -10.41c-0.4,-0.27 -0.8,-0.67 -0.8,-1.2 0,-0.54 0.27,-0.81 0.8,-1.07zm12.15 23.5c-0.26,0.26 -0.66,0.4 -0.93,0.4 -0.27,0 -0.67,-0.14 -0.94,-0.4 -0.53,-0.54 -0.53,-1.34 0,-1.87l5.34 -5.34c0.54,-0.54 1.34,-0.54 1.87,0 0.54,0.53 0.54,1.33 0,1.87l-5.34 5.34zm-1.87 -12.55c0.54,-0.54 1.34,-0.54 1.87,0 0.54,0.53 0.54,1.33 0,1.87l-10.68 10.68c-0.26,0.26 -0.67,0.4 -0.93,0.4 -0.27,0 -0.67,-0.14 -0.94,-0.4 -0.53,-0.54 -0.53,-1.34 0,-1.87l10.68 -10.68zm7.21 17.89l-5.34 5.34c-0.26,0.26 -0.66,0.4 -0.93,0.4 -0.27,0 -0.67,-0.14 -0.94,-0.4 -0.53,-0.54 -0.53,-1.34 0,-1.87l5.34 -5.34c0.54,-0.54 1.34,-0.54 1.87,0 0.54,0.53 0.54,1.33 0,1.87zm35.92 -66.23c0.67,-0.26 1.47,0 1.74,0.54 0.26,0.66 0,1.47 -0.54,1.73l-10.68 5.34c-0.27,0.27 -0.4,0.27 -0.67,0.27 -0.53,0 -0.93,-0.27 -1.2,-0.8 -0.27,-0.67 0,-1.47 0.54,-1.74l10.81 -5.34z"/>
   </g>
  </g>
 </g>
</svg>
