<?xml version="1.0" encoding="UTF-8"?>
<!DOCTYPE svg PUBLIC "-//W3C//DTD SVG 1.1//EN" "http://www.w3.org/Graphics/SVG/1.1/DTD/svg11.dtd">
<!-- Creator: CorelDRAW 2018 (64 Bit Versão de avaliação) -->
<svg xmlns="http://www.w3.org/2000/svg" xml:space="preserve" width="200px" height="200px" version="1.1" style="shape-rendering:geometricPrecision; text-rendering:geometricPrecision; image-rendering:optimizeQuality; fill-rule:evenodd; clip-rule:evenodd"
viewBox="0 0 356.03 356.03"
 xmlns:xlink="http://www.w3.org/1999/xlink">
 <defs>
  <style type="text/css">
   <![CDATA[
    .fil0 {fill:none}
    .fil1 {fill:#00F2A9}
    .fil2 {fill:#0F4069;fill-rule:nonzero}
   ]]>
  </style>
 </defs>
 <g id="Camada_x0020_1">
  <metadata id="CorelCorpID_0Corel-Layer"/>
  <g id="_2590664727360">
   <rect class="fil0" width="356.03" height="356.03"/>
   <g>
    <rect class="fil1" x="252.38" y="240.71" width="50.41" height="57.37" rx="12.44" ry="12.44"/>
    <rect class="fil1" x="54.53" y="240.71" width="50.41" height="57.37" rx="12.44" ry="12.44"/>
    <circle class="fil1" cx="227.44" cy="169.52" r="30.96"/>
    <path class="fil2" d="M295.34 226.72c-0.05,6.53 -5.43,11.79 -11.95,11.74l-210.75 0c-6.53,0.05 -11.9,-5.16 -11.96,-11.74l0 -43.2c0,-6.03 2.69,-11.79 7.3,-15.68 0.05,-0.06 0.16,-0.16 0.21,-0.22l7.46 -7.02 207.63 0 5.26 5.65c0.06,0.11 0.22,0.16 0.28,0.27 4.11,3.9 6.47,9.32 6.47,14.97l0 45.23 0.05 0zm-90.85 -38.16l-52.96 0c-3.01,0 -5.48,2.47 -5.48,5.49 0,3.01 2.47,5.48 5.48,5.48l52.96 0c3.02,0 5.49,-2.47 5.49,-5.48 0,-3.02 -2.47,-5.49 -5.49,-5.49l0 0zm0 17l-52.96 0c-3.01,0 -5.48,2.47 -5.48,5.48 0,3.02 2.47,5.49 5.48,5.49l52.96 0c3.02,0 5.49,-2.47 5.49,-5.49 0,-3.01 -2.47,-5.48 -5.49,-5.48l0 0zm65.08 5.48l-30.15 0 0 -17.54 30.15 0 0 17.54zm10.97 -23.02c0,-3.02 -2.47,-5.49 -5.48,-5.49l-41.12 0c-3.02,0 -5.49,2.47 -5.49,5.49l0 28.51c0,3.01 2.47,5.48 5.49,5.48l41.12 0c3.01,0 5.48,-2.47 5.48,-5.48l0 -28.51zm-163.93 23.02l-30.16 0 0 -17.54 30.16 0 0 17.54zm10.96 -23.02c0,-3.02 -2.46,-5.49 -5.48,-5.49l-41.12 0c-3.02,0 -5.48,2.47 -5.48,5.49l0 28.51c0,3.01 2.46,5.48 5.48,5.48l41.12 0c3.02,0 5.48,-2.47 5.48,-5.48l0 -28.51zm155.82 84.43l-14.48 0c-6.57,0 -11.89,-5.32 -11.95,-11.84l0 -11.19 26.43 0c4.33,0 8.66,-1.04 11.95,-3.18l0 14.37c-0.05,6.58 -5.37,11.84 -11.95,11.84zm-184.33 -11.84c-0.05,6.58 -5.37,11.84 -11.95,11.84l-14.47 0c-6.58,0 -11.9,-5.26 -11.96,-11.84l0 -14.37c3.29,2.14 7.62,3.18 11.96,3.18l26.42 0 0 11.19zm155.11 -110.97l-52.14 0c3.01,-14.42 17.16,-23.63 31.58,-20.62 10.3,2.2 18.36,10.25 20.56,20.62zm-155.66 -46.06c1.76,-4.66 6.2,-7.67 11.13,-7.67l140.25 0c4.93,0 9.38,3.07 11.13,7.67l17.11 46.06 -12.78 0c-3.01,-20.56 -22.15,-34.76 -42.71,-31.69 -16.39,2.41 -29.28,15.29 -31.69,31.69l-109.54 0 17.1 -46.06zm192.39 49.18l-19.63 -52.91c-3.34,-8.93 -11.89,-14.85 -21.43,-14.91l-140.2 0c-9.54,0 -18.09,5.98 -21.43,14.91l-19.36 52.25 -8.06 7.46c-7.01,5.98 -11.07,14.75 -11.07,23.96l0 77.09c0.05,12.61 10.31,22.8 22.92,22.8l14.47 0c12.61,0 22.86,-10.19 22.92,-22.8l0 -11.19 135.97 0 0 11.19c0.05,12.61 10.31,22.8 22.91,22.8l14.48 0c12.61,0 22.86,-10.19 22.92,-22.8l0 -79.12c-0.06,-8.61 -3.57,-16.83 -9.82,-22.81l-5.59 -5.92z"/>
   </g>
  </g>
 </g>
</svg>
