<?xml version="1.0" encoding="UTF-8"?>
<!DOCTYPE svg PUBLIC "-//W3C//DTD SVG 1.1//EN" "http://www.w3.org/Graphics/SVG/1.1/DTD/svg11.dtd">
<!-- Creator: CorelDRAW 2018 (64 Bit Versão de avaliação) -->
<svg xmlns="http://www.w3.org/2000/svg" xml:space="preserve" width="200px" height="200px" version="1.1" style="shape-rendering:geometricPrecision; text-rendering:geometricPrecision; image-rendering:optimizeQuality; fill-rule:evenodd; clip-rule:evenodd"
viewBox="0 0 71.96 71.96"
 xmlns:xlink="http://www.w3.org/1999/xlink">
 <defs>
  <style type="text/css">
   <![CDATA[
    .fil0 {fill:none}
    .fil1 {fill:#00F2A9;fill-rule:nonzero}
    .fil2 {fill:#0F4069;fill-rule:nonzero}
   ]]>
  </style>
 </defs>
 <g id="Camada_x0020_1">
  <metadata id="CorelCorpID_0Corel-Layer"/>
  <g id="_2590436697600">
   <rect class="fil0" width="71.96" height="71.96"/>
   <g>
    <path class="fil1" d="M35.98 59.28c-10.3,0 -18.64,-8.35 -18.64,-18.64 0,-10.3 8.34,-18.64 18.64,-18.64 10.29,0 18.64,8.34 18.64,18.64 0,10.29 -8.35,18.64 -18.64,18.64zm0 -41.94c-12.87,0 -23.3,10.43 -23.3,23.3 0,12.86 10.43,23.29 23.3,23.29 12.87,0 23.3,-10.43 23.3,-23.29 0,-12.87 -10.43,-23.3 -23.3,-23.3z"/>
    <g>
     <path class="fil2" d="M37.14 8.02l0 -4.66c0,-0.64 -0.52,-1.16 -1.16,-1.16 -0.64,0 -1.17,0.52 -1.17,1.16l0 4.66c0,0.65 0.53,1.17 1.17,1.17 0.64,0 1.16,-0.52 1.16,-1.17z"/>
     <path class="fil2" d="M8.02 34.81l-4.66 0c-0.64,0 -1.16,0.52 -1.16,1.17 0,0.64 0.52,1.16 1.16,1.16l4.66 0c0.64,0 1.17,-0.52 1.17,-1.16 0,-0.65 -0.53,-1.17 -1.17,-1.17z"/>
     <path class="fil2" d="M68.59 34.81l-4.66 0c-0.64,0 -1.16,0.52 -1.16,1.17 0,0.64 0.52,1.16 1.16,1.16l4.66 0c0.65,0 1.17,-0.52 1.17,-1.16 0,-0.65 -0.52,-1.17 -1.17,-1.17z"/>
     <path class="fil2" d="M16.21 17.37c0.3,0 0.6,-0.11 0.82,-0.34 0.46,-0.45 0.46,-1.19 0,-1.64l-3.29 -3.3c-0.46,-0.45 -1.19,-0.45 -1.65,0 -0.45,0.46 -0.45,1.19 0,1.65l3.3 3.29c0.22,0.23 0.52,0.34 0.82,0.34z"/>
     <path class="fil2" d="M56.57 54.92c-0.45,-0.45 -1.19,-0.45 -1.65,0 -0.45,0.46 -0.45,1.2 0,1.65l3.3 3.29c0.22,0.23 0.52,0.35 0.82,0.35 0.3,0 0.6,-0.12 0.82,-0.35 0.46,-0.45 0.46,-1.19 0,-1.64l-3.29 -3.3z"/>
     <path class="fil2" d="M15.39 54.92l-3.3 3.3c-0.45,0.45 -0.45,1.19 0,1.64 0.23,0.23 0.53,0.35 0.82,0.35 0.3,0 0.6,-0.12 0.83,-0.35l3.29 -3.29c0.46,-0.45 0.46,-1.19 0,-1.65 -0.45,-0.45 -1.19,-0.45 -1.64,0z"/>
     <path class="fil2" d="M56.57 17.03l3.29 -3.29c0.46,-0.46 0.46,-1.19 0,-1.65 -0.45,-0.45 -1.19,-0.45 -1.64,0l-3.3 3.3c-0.45,0.45 -0.45,1.19 0,1.64 0.23,0.23 0.53,0.34 0.83,0.34 0.3,0 0.59,-0.11 0.82,-0.34z"/>
     <path class="fil2" d="M39.47 40.64c0,1.51 -0.97,2.8 -2.33,3.28l0 -6.56c1.36,0.48 2.33,1.76 2.33,3.28zm-6.99 -9.32c0,-1.52 0.98,-2.8 2.33,-3.28l0 6.56c-1.35,-0.48 -2.33,-1.76 -2.33,-3.28zm6.99 0c0,0.64 0.52,1.16 1.17,1.16 0.64,0 1.16,-0.52 1.16,-1.16 0,-2.81 -2,-5.17 -4.66,-5.71l0 -3.61c0,-0.64 -0.52,-1.17 -1.16,-1.17 -0.64,0 -1.17,0.53 -1.17,1.17l0 3.61c-2.65,0.54 -4.66,2.9 -4.66,5.71 0,2.81 2.01,5.16 4.66,5.71l0 6.89c-1.35,-0.48 -2.33,-1.77 -2.33,-3.28 0,-0.65 -0.52,-1.17 -1.16,-1.17 -0.64,0 -1.17,0.52 -1.17,1.17 0,2.81 2.01,5.16 4.66,5.7l0 3.62c0,0.64 0.53,1.16 1.17,1.16 0.64,0 1.16,-0.52 1.16,-1.16l0 -3.62c2.66,-0.54 4.66,-2.89 4.66,-5.7 0,-2.82 -2,-5.17 -4.66,-5.71l0 -6.89c1.36,0.48 2.33,1.76 2.33,3.28z"/>
     <path class="fil2" d="M41.61 57.39c-0.22,-0.8 -0.62,-1.52 -1.15,-2.12 8.77,-2.04 15.32,-9.91 15.32,-19.29 0,-10.92 -8.88,-19.8 -19.8,-19.8 -10.92,0 -19.8,8.88 -19.8,19.8 0,9.38 6.55,17.25 15.31,19.29 -0.53,0.6 -0.93,1.32 -1.15,2.12 -9.65,-2.54 -16.52,-11.37 -16.49,-21.46 0.02,-11.54 9.4,-21.44 20.91,-22.05 6.17,-0.34 11.99,1.81 16.44,6.03 4.46,4.23 6.91,9.93 6.91,16.07 0,10.07 -6.87,18.88 -16.5,21.41zm-2.14 6.54c0,1.93 -1.57,3.5 -3.49,3.5 -1.93,0 -3.5,-1.57 -3.5,-3.5l0 -4.65c0,-1.52 0.98,-2.8 2.33,-3.28l0 3.28c0,0.64 0.53,1.16 1.17,1.16 0.64,0 1.16,-0.52 1.16,-1.16l0 -3.28c1.36,0.48 2.33,1.76 2.33,3.28l0 4.65zm-3.49 -10.48c-9.64,0 -17.48,-7.84 -17.48,-17.47 0,-9.64 7.84,-17.48 17.48,-17.48 9.63,0 17.47,7.84 17.47,17.48 0,9.63 -7.84,17.47 -17.47,17.47zm-1.34 -41.9c-12.72,0.68 -23.1,11.61 -23.12,24.37 -0.03,11.29 7.76,21.14 18.63,23.8l0 4.21c0,3.22 2.62,5.83 5.83,5.83 3.21,0 5.82,-2.61 5.82,-5.83l0 -4.21c10.85,-2.66 18.64,-12.48 18.64,-23.74 0,-6.78 -2.71,-13.09 -7.64,-17.76 -4.92,-4.66 -11.37,-7.03 -18.16,-6.67z"/>
    </g>
   </g>
  </g>
 </g>
</svg>
