<?xml version="1.0" encoding="UTF-8"?>
<!DOCTYPE svg PUBLIC "-//W3C//DTD SVG 1.1//EN" "http://www.w3.org/Graphics/SVG/1.1/DTD/svg11.dtd">
<!-- Creator: CorelDRAW 2018 (64 Bit Versão de avaliação) -->
<svg xmlns="http://www.w3.org/2000/svg" xml:space="preserve" width="200px" height="200px" version="1.1" style="shape-rendering:geometricPrecision; text-rendering:geometricPrecision; image-rendering:optimizeQuality; fill-rule:evenodd; clip-rule:evenodd"
viewBox="0 0 44.3 44.3"
 xmlns:xlink="http://www.w3.org/1999/xlink">
 <defs>
  <style type="text/css">
   <![CDATA[
    .fil0 {fill:none}
    .fil1 {fill:#00F2A9;fill-rule:nonzero}
    .fil2 {fill:#0F4069;fill-rule:nonzero}
   ]]>
  </style>
 </defs>
 <g id="Camada_x0020_1">
  <metadata id="CorelCorpID_0Corel-Layer"/>
  <g id="_2590660875392">
   <rect class="fil0" width="44.3" height="44.3"/>
   <g>
    <path class="fil1" d="M30.04 6.38c5.81,0 10.51,4.71 10.51,10.51 0,5.81 -4.7,10.52 -10.51,10.52 -5.81,0 -10.51,-4.71 -10.51,-10.52 0,-5.8 4.7,-10.51 10.51,-10.51z"/>
    <path class="fil2" d="M39.24 30.89c-2.3,2.5 -5.26,4.07 -8.48,4.67l-9.39 1.7 -7.23 -2.56c-0.07,0 -0.13,-0.06 -0.2,-0.06l-0.92 0 -2.04 -6.05c0,0 0,0 0.07,0l4.4 -2.23c0.92,-0.46 2.04,-0.46 2.96,0.06l5.39 3.09c0.33,0.2 0.52,0.46 0.59,0.85 0.06,0.4 -0.07,0.79 -0.33,1.06 -0.13,0.13 -0.26,0.19 -0.39,0.26l-0.4 0.06c-0.06,0 -0.2,0 -0.26,-0.06l-6.38 -2.24c-0.32,-0.13 -0.72,0.07 -0.85,0.4 -0.13,0.33 0.07,0.72 0.39,0.85l6.38 2.24c0.26,0.06 0.52,0.13 0.79,0.13 0.06,0 0.06,0 0.13,0l0.06 0c0.14,0 0.27,-0.07 0.4,-0.07l10.58 -1.9c1.25,-0.27 2.36,-0.92 3.28,-1.84 0.4,-0.46 1.12,-0.46 1.51,0 0.4,0.39 0.4,1.18 -0.06,1.64zm-28.26 6.37c0.37,0 0.66,0.3 0.66,0.66 0,0.36 -0.29,0.66 -0.66,0.66 -0.36,0 -0.65,-0.3 -0.65,-0.66 0,-0.36 0.29,-0.66 0.65,-0.66zm21.23 -23.45l-2.63 2.62c-0.26,0.27 -0.26,0.66 0,0.92 0.13,0.14 0.33,0.2 0.46,0.2 0.13,0 0.33,-0.06 0.46,-0.2l2.63 -2.62c0.26,-0.27 0.26,-0.66 0,-0.92 -0.27,-0.27 -0.66,-0.27 -0.92,0zm-4.8 1.11c0.2,0 0.33,-0.06 0.46,-0.19l2.63 -2.63c0.26,-0.27 0.26,-0.66 0,-0.92 -0.26,-0.26 -0.66,-0.26 -0.92,0l-2.63 2.63c-0.26,0.26 -0.26,0.65 0,0.92 0.13,0.13 0.26,0.19 0.46,0.19zm4.8 -3.74l-5.26 5.25c-0.26,0.27 -0.26,0.66 0,0.92 0.13,0.14 0.33,0.2 0.46,0.2 0.13,0 0.33,-0.06 0.46,-0.2l5.26 -5.25c0.26,-0.27 0.26,-0.66 0,-0.92 -0.27,-0.26 -0.66,-0.26 -0.92,0zm-2.17 10.31c-4.01,0 -7.23,-3.22 -7.23,-7.22 0,-4.01 3.22,-7.23 7.23,-7.23 4.01,0 7.23,3.22 7.23,7.23 0,4 -3.22,7.22 -7.23,7.22zm0 -15.77c-4.73,0 -8.54,3.82 -8.54,8.55 0,4.73 3.81,8.54 8.54,8.54 4.73,0 8.54,-3.81 8.54,-8.54 0,-4.73 -3.81,-8.55 -8.54,-8.55zm0 18.4c-5.45,0 -9.86,-4.4 -9.86,-9.85 0,-5.46 4.41,-9.86 9.86,-9.86 5.45,0 9.86,4.4 9.86,9.86 0,5.45 -4.41,9.85 -9.86,9.85zm0 -21.02c-6.18,0 -11.17,4.99 -11.17,11.17 0,6.17 4.99,11.17 11.17,11.17 6.18,0 11.17,-5 11.17,-11.17 0,-6.18 -4.99,-11.17 -11.17,-11.17zm-20.57 36.79l-4.79 -14.45 3.87 0 4.8 14.45 -3.88 0zm30.75 -11.63c-0.92,-0.98 -2.49,-0.98 -3.41,0 -0.73,0.79 -1.58,1.25 -2.57,1.51l-8.67 1.58c0.13,-0.39 0.13,-0.79 0.07,-1.18 -0.13,-0.79 -0.59,-1.45 -1.25,-1.78l-5.39 -3.08c-1.31,-0.73 -2.89,-0.79 -4.21,-0.07l-4.2 2.17 -0.92 -2.76c-0.13,-0.33 -0.39,-0.53 -0.66,-0.53l-5.25 0c-0.2,0 -0.4,0.13 -0.53,0.27 -0.13,0.19 -0.2,0.39 -0.07,0.59l5.26 15.77c0.07,0.26 0.33,0.46 0.59,0.46l5.26 0c0.2,0 0.39,-0.14 0.52,-0.27 0.14,-0.19 0.14,-0.39 0.07,-0.59l-1.44 -4.4 0.39 0 7.29 2.56c0.07,0 0.13,0.07 0.2,0.07 0.07,0 0.07,0 0.13,0l9.59 -1.71c3.49,-0.66 6.71,-2.37 9.2,-5.06 0.86,-0.99 0.86,-2.56 0,-3.55z"/>
   </g>
  </g>
 </g>
</svg>
