<?xml version="1.0" encoding="UTF-8"?>
<!DOCTYPE svg PUBLIC "-//W3C//DTD SVG 1.1//EN" "http://www.w3.org/Graphics/SVG/1.1/DTD/svg11.dtd">
<!-- Creator: CorelDRAW 2018 (64 Bit Versão de avaliação) -->
<svg xmlns="http://www.w3.org/2000/svg" xml:space="preserve" width="1000px" height="843px" version="1.1" style="shape-rendering:geometricPrecision; text-rendering:geometricPrecision; image-rendering:optimizeQuality; fill-rule:evenodd; clip-rule:evenodd"
viewBox="0 0 1276.91 1077.02"
 xmlns:xlink="http://www.w3.org/1999/xlink">
 <defs>
  <style type="text/css">
   <![CDATA[
    .fil2 {fill:#95D5D0}
    .fil1 {fill:#96D5CF}
    .fil3 {fill:#73B2AB}
    .fil4 {fill:#507672}
    .fil0 {fill:#12EAD0}
    .fil5 {fill:#373435;fill-rule:nonzero}
   ]]>
  </style>
 </defs>
 <g id="Camada_x0020_1">
  <metadata id="CorelCorpID_0Corel-Layer"/>
  <g id="_2590634811920">
   <path class="fil0" d="M365.03 575.67c0,3.47 2.24,0.36 0.87,0 -0.02,0 -0.87,-3.97 -0.87,0zm-16.05 270.2l0.12 0.21 5.65 3.23 -0.09 0.48 6.24 3.05 0.98 0.56 0.02 -0.08 26.99 13.17c1.29,0.79 4.06,2.72 5.16,3.33 3.55,1.98 3.1,2.78 7.34,0.96 0,7.2 -0.87,1.92 4.03,5.86l6.9 4.19c0.26,0.15 0.62,0.35 0.89,0.51l76.5 56.36c3.79,3.03 5.61,5.64 9.57,8.61l19.12 14.45c3.6,2.12 0.57,0.71 3.65,1.94 8.66,3.44 11.94,4.93 18.15,11.22 6.82,6.9 16.52,10.09 24.77,14.4l19.64 9.72c6.87,-4.6 8.94,-2.42 22.4,6.98l14.52 7.85c3.17,1.47 1.28,0.88 4.5,2.49l13.63 5.97c5.55,2.49 11.41,6.85 13.48,-0.91 3.09,2.07 5.46,4.24 8.76,6.62l15.46 9.72c2.76,1.73 2.95,2.14 5.01,3.38 20.59,12.45 10.81,-4.1 36.68,2.48 5.96,1.51 3.14,1.34 8.4,2.79 8.09,2.24 27.76,14.17 27.79,14.17 6.88,0.62 9.1,-9.88 25.87,-1.84 4.37,2.1 0.19,2.45 4.44,1.16 4.36,-1.33 3.25,-6.82 3.25,-11.9l16.35 8.82c7.85,3.83 14.68,5.12 23.95,6.82 12.58,2.31 12.77,1.12 23.61,-2.08 5.09,-1.5 7.44,-0.37 12.47,-1.53 7.55,-1.72 2.49,-2.44 11.63,-3.75l11.09 -2.89c12.96,-4.83 31.94,-10.05 46.11,-3.75l36.93 14.82c0.32,0.12 0.71,0.23 1.04,0.36l20.06 7.91c24.19,8.06 39.12,6.69 60.81,-2.65l12.46 -5.71c0.3,-0.14 0.68,-0.29 0.97,-0.43 6.4,-3.15 12.4,-6.96 16.86,-12.51 5.13,-6.38 -3.68,5.46 1.21,-1.59 3,-4.31 4.54,-7.07 5.22,-12.96 0.31,-2.72 0.86,-10.15 1.53,-12.45 1.04,-3.53 0.48,-2.04 2.74,-4.26 1.24,-1.22 2.16,-1.49 3.65,-3.34 2.3,-2.83 0.74,-0.35 2.62,-4.38 4.03,-8.66 -0.25,-6.98 -4.52,-13.9 -2.98,-4.85 -1.15,-5.63 -2.66,-11.41 -0.72,-2.76 -5.88,-12.89 7.76,-16.07 -1.45,-6.2 -1.07,-6.51 -4.2,-11.19 -6.74,0.56 -4.45,2.24 -11.19,2.8l-6.62 -8.76c-6.18,-7.12 -22.75,-15.84 -22.75,-24.8 1.65,-6.17 6.56,-7.52 8.39,-15.39l16.8 6.99c0.4,0.09 0.79,0.11 1.18,0.21 0.38,0.09 0.76,0.16 1.13,0.27l52.76 35.34c0.42,0.17 1.53,0.7 1.93,0.88l10.26 3.73c16.99,7.4 35.63,6.88 54.82,9.57 23.14,3.26 24.07,-7.36 34.95,-21.62l2.42 -3.18c0.17,-0.24 0.41,-0.58 0.57,-0.82l15.46 -18.11c3.59,-3.9 7.2,-5.55 7.72,-11.86 -4.09,-0.98 -2.01,0.18 -4.19,-2.8l5.5 -8.48c1.83,-2.89 1.2,-1.4 2.5,-4.49l8.78 -28.99c-7.35,-10.97 -35.76,-25.65 -44.84,-30.68 -0.28,-0.15 -0.63,-0.35 -0.9,-0.5l-47.55 -26.57c-0.27,-0.16 -0.61,-0.37 -0.87,-0.53l-1.72 -1.08c-0.26,-0.15 -0.6,-0.38 -0.86,-0.54 -14.04,-8.2 -41.99,-26.4 -54.94,-37.36l-6.04 -5.15c-2.78,-2.35 -4.85,-3.11 -6.35,-6.15 -0.14,-0.28 -0.28,-0.74 -0.39,-1.02l-0.57 -2.3c5.55,0.46 7.71,2.01 15.27,1.36 7.89,-0.69 23.07,-0.52 30.54,-3.1 1.9,-0.65 4.18,-1.31 6.56,-1.84l31.86 -14.29c2.32,-1.34 1.25,-0.72 2.52,-1.67 4.94,-3.67 7.95,-9.63 13.94,-11.23 0,-13.67 -0.39,-5.49 -5.59,-12.59 1.99,-8.54 4.19,-3.29 4.19,-13.99 -5.38,-0.44 -4.5,-1.39 -11.18,-1.39 1.74,-2.6 2.88,-5.08 4.79,-7.8 2.09,-2.99 13.32,-12.57 3.78,-13.03 -4.15,-0.2 -5.99,2.16 -7.17,5.44 -4.48,-2.99 -6.35,-2.91 -6.97,-9.91 -0.36,-4.07 1.58,-12.78 2.77,-15.26 -3.05,-2.04 -7.15,-5.43 -9.26,-8.91 -2.21,-3.62 -1.01,-2.55 -2.07,-6.12 -2.2,-7.32 -8.59,-14.17 -13.98,-19.8 -0.2,-0.21 -0.49,-0.51 -0.69,-0.71l-16.8 -13.97c-1.02,-1 -1.42,-1.45 -2.08,-2.11l-1.41 -1.4c-0.2,-0.2 -0.49,-0.49 -0.7,-0.69 -0.2,-0.21 -0.49,-0.5 -0.69,-0.71l-7.08 -8.3c-2.96,-4.2 -7.22,-9.36 -3.76,-15.27l9.08 -9.21c4.48,-5.03 1.24,0.11 3.66,-6.13 1.75,-4.5 3.75,-7.24 3.9,-14.28 0.52,-24.03 -3.95,-21.24 5.86,-31.91 5.52,-6 10.75,-17.43 12.03,-25.73 1.21,-7.82 5.68,-15.05 4.56,-23.65 -0.7,-5.39 0.61,-4.18 -4.35,-5.51l0 -8.39c3.19,-1.15 1.59,0.51 3.33,-2.52 1.38,-2.43 1.35,-2.05 0.17,-4.94l-5.45 -8.76c-4.25,-9.62 -1.62,-11.44 -11.06,-16.92 -1.88,-1.1 -1.64,-1.1 -4.42,-2.57l-11.98 -9c-2.86,-2.42 -4.43,-4.13 -7.37,-6.62l-11.35 -9.62c-2.18,-1.99 -1.63,-1.46 -3.82,-3.17l-41.74 -35.19c-0.23,-0.18 -0.55,-0.43 -0.79,-0.61l-11.22 -8.36c-1.45,-1.15 -1.82,-1.33 -3.15,-2.44l-3.73 -3.27c-1.36,-1.08 -2.65,-1.89 -4.13,-2.86l-43.47 -33.45c-0.31,-0.26 -1.16,-1.06 -1.46,-1.34l-48.15 -39.96c-0.22,-0.19 -0.54,-0.45 -0.76,-0.63l-17.42 -16.16c6.71,0.15 3.27,0.09 6.75,1.65l9.72 4.26c0.38,0.18 1.14,0.67 2.81,1.39 1.7,0.72 1.71,0.57 3.07,1.12 3.57,1.45 1.17,0.39 3.79,1.81l24.58 11.79c4.31,2.18 7.48,4.05 11.89,6.28l6.9 2.89c0.31,0.13 0.68,0.29 0.97,0.43l85.33 39.15c3.01,1.18 3.43,2.38 6.85,3.14 9.78,2.17 18.55,-10.36 23.95,-17.37 0.18,-0.23 0.43,-0.56 0.61,-0.79 0.17,-0.24 0.41,-0.57 0.59,-0.8 0.18,-0.23 0.42,-0.57 0.6,-0.8 0.18,-0.23 0.44,-0.56 0.62,-0.78l1.3 -1.51c6.51,-7.42 -0.62,-13.18 -6.51,-20.29l-59.74 -47.95c-0.24,-0.17 -0.56,-0.43 -0.8,-0.6l-3.27 -2.32c-0.26,-0.17 -0.61,-0.38 -0.87,-0.54l-135.3 -73.08c-1.34,-0.73 -1.41,-0.69 -2.81,-1.39l-27.55 -14.4c-0.28,-0.15 -0.63,-0.35 -0.91,-0.5 -0.28,-0.14 -0.61,-0.36 -0.89,-0.51l-25.36 -12.39c-0.28,-0.15 -0.61,-0.38 -0.88,-0.52l-76.52 -36.77c-1.71,-0.65 -1.12,-0.27 -3.08,-1.11l-39.6 -17.75c-0.29,-0.13 -0.64,-0.32 -0.93,-0.47l-42.71 -18.82c-10.24,-4.71 -21.78,-7.42 -32.24,-12.52 -2.28,-1.11 -3.69,-1.9 -6.52,-3.27l-33.33 -11.42c-4.81,-1.16 -3.63,-0.13 -7.96,-1.84l-29.02 -7.34c-6.34,-1.12 -6.29,-3.16 -14.35,-3.83l-32.55 -5.21c-5.94,-0.76 -11.76,0.06 -17.63,-0.56 -14.29,-1.49 -37.8,-7.05 -49.19,0.13 -5.87,3.7 -9.57,11.3 -14.05,16.72l-2.5 3.1c-0.81,1.05 -1,1.31 -1.8,2.38l-1.8 2.41c-0.64,0.96 -1,1.65 -1.55,2.64 -7.66,13.77 -3.08,15.63 -8.98,16.19 -5.57,0.54 -34.56,-10.01 -42.6,-12l-13.97 -4.21c-3.01,-0.7 -4.59,-0.32 -7.33,-1.06 -4.54,-1.24 -1.52,-1.5 -6.74,-3.05 -3.25,-0.96 -4.15,-0.33 -7.23,-1.16 -6.31,-1.7 -4.21,-2.44 -14.26,-3.93 -4.69,-0.69 -3.68,-1.15 -7.19,-2.6 -5.33,-2.18 -10.9,-1.39 -18.19,-1.39 -1.44,5.38 -6.55,9.48 -10.37,13.41l-10.75 13.03c-2.91,4.59 -8.2,7.67 -2.86,15.72l5.8 9.59c-6.42,0.54 -7.06,3.14 -11.33,1.49 -4.14,-1.6 -5.81,-5.06 -8.82,-7.91 -3.18,-3.03 -5.14,-4.21 -8.95,-6.44l-56.22 -26.3c-2.99,4.47 -2.29,0.98 -2.79,6.99 -4.61,-2.43 -3.78,-1.58 -9.29,-3.3l-9.62 -2.96c-3.9,-0.71 -8.16,-0.33 -11.43,-1.16 -5.25,-1.34 -7.38,-6.97 -13.87,-0.42l-2.02 2.17c-2,2.28 -2.97,3.96 -5.52,5.67l5.59 9.79c-5.38,-1.43 -16.65,-8.57 -20.38,-0.68 -1.8,3.79 3.6,15.25 3.6,23.06 -9.64,0 -11.12,2.09 -15.38,6.99 5.31,10.04 14.73,18.65 20.97,27.98 -5.72,-0.13 -6.08,-0.84 -9.79,-2.8 0.44,5.24 1.97,6.86 5.4,9.99 0.21,0.19 0.53,0.46 0.74,0.66l12.05 14.52c-6.21,0.14 -6.49,-0.44 -7,5.6 5.75,1.53 2.55,1.53 6.92,4.27l6.38 3.41c0.28,0.14 0.61,0.37 0.89,0.51 5.19,2.51 11.4,3.59 16.58,7.19 -13.75,0 -20.41,0.04 -32.96,-3.4 -10.21,-2.79 -10.42,-6.56 -21.2,3.79 -3.75,3.6 -1.03,-1.52 -3.18,3.81l-6.99 -8.39 -7.14 18.04c-3.3,6.44 -4.05,14.37 -4.05,22.52l7.83 6.15c1.3,1.32 1.39,1.37 2.79,2.8l15.03 18.54c3.25,5 7.72,9.9 9.31,15.86 -3.05,2.04 -5.91,4.38 -8.39,6.99 4.86,9.19 9.94,7.55 18.52,12.26 5.22,2.87 3.69,-0.22 3.86,7.33 -7.53,0.16 -8.29,1.95 -9.79,8.39l30.49 11.46c2.61,1.19 2.14,1.27 4.59,2.41l89.01 52.24c3.77,3.61 1.03,-1.51 3.18,3.82 -5.32,-1.24 -0.01,0.38 -5,-1.99l-12.59 -5.6c-1.59,-0.69 -1.41,-0.52 -3.06,-1.13l-23.99 -10.98c-0.27,-0.15 -0.6,-0.38 -0.88,-0.52l-64.19 -33.71c-2.9,-1.6 -1.46,-1.11 -4.42,-2.57 -9.79,-4.8 -25.07,-12.73 -33.25,-20.05 -4.47,-4 -3.46,-3.88 -0.87,-8.77 -10.08,0 -6.99,2.63 -10.13,9.46 -2.19,4.77 -3.55,9.52 -5.26,14.31 -1.17,3.28 -1.1,3.27 -1.98,7.82 -0.03,0.19 -0.66,3.5 -0.67,3.52l-3.56 11.83c-1.8,9.78 -4.63,20.66 -8.86,30.29l-6.2 10.6c-0.17,0.24 -0.46,0.53 -0.62,0.79 -0.17,0.26 -0.44,0.56 -0.6,0.83 -1.97,3.55 -1.27,8.81 0.63,12.12 0.15,0.27 0.4,0.58 0.56,0.84 0.16,0.27 0.39,0.6 0.55,0.86 3.19,5.05 1.31,4.35 5.37,5.82l0 7c-6.61,1.76 -13.46,5.39 -15.38,12.58 3.43,1.65 6.05,2.69 11.19,2.8l0 11.19c-5.34,-1.24 -5.56,-1.4 -12.59,-1.4 -3.97,5.92 -4.2,1.56 -4.2,11.19 4.86,1.3 1.58,0.24 5.08,3.31 2.26,1.99 2.86,2.69 5.34,4.46 5.39,3.85 6.37,3.25 6.37,11.81 -5.05,-5.81 -3.25,-2.45 -9.79,-5.59 -4.3,3.14 -2.26,-0.91 -2.8,5.59 -13.66,0 -35.74,-0.71 -45.99,1.56 -6.87,1.53 -4.62,2.63 -14.15,2.63 4.76,-9.92 9.65,-11.18 -12.59,-11.18l-7.84 11.74c-9.37,11.03 0.52,12.98 4.38,21.09l6.26 11.92 -4.44 5.38c2.81,4.05 4.59,7.6 7.24,11.4 -1.22,4.57 -1.12,2.1 -2.41,5.99 -1.65,5.01 -1.66,9.3 -6.27,12.01 -9.15,5.38 -8.87,-5.65 -16.83,8.24 -1.13,1.97 -0.17,0.63 -1.66,2.54 -0.18,0.23 -0.47,0.52 -0.66,0.74l-1.37 1.43c-1.89,2.08 -2.88,3.19 -4.37,5.42 4.41,6.58 8.39,15.34 8.39,23.77l-8.39 4.2 3.42 6.37c0.6,0.99 0.95,1.63 1.52,2.67l3.75 7.45c6.49,12.3 10.34,25.84 15.77,38.77 7.02,16.72 6.31,11.76 6.31,32.85 4.88,1.3 1.43,0.08 5.1,3.29 15.14,13.27 27.64,29.31 43.08,42.23 0.22,0.19 0.55,0.45 0.77,0.63l9.66 8.53c0.22,0.18 0.53,0.45 0.75,0.64 0.32,0.26 1.21,1.01 1.53,1.27l7.69 6.29c3.35,2.95 0.25,1.45 5.54,4.25 -3.98,5.44 -2.2,0.09 -4.19,5.6l5.05 4.73c4.39,4.34 7.96,10.1 14.53,10.65 -0.53,-6.34 -2.99,-7.65 -5.6,-12.59 10.82,2.89 14.85,12.59 26.58,12.59 0,-9.31 1.49,-7.5 -4.9,-14.68l-1.98 -2.22c-1.48,-1.57 -2.79,-2.76 -4.31,-4.08l15.64 6.74c2.42,1.31 3.52,1.48 5.67,2.72 0.27,0.15 0.6,0.38 0.86,0.54l23.36 14.4c0.36,0.22 1.42,0.8 1.78,1.02l13.23 9.15c0.23,0.17 0.56,0.43 0.79,0.6l25 18.36c1.1,0.74 3.14,2.05 4.19,2.8l43.88 34.44c1.49,1.35 2.77,2.35 4.66,3.73 11.75,8.6 17.64,15.06 28,23.78l21.68 15.99c0.09,1.9 -0.37,1.54 1.47,0.93l0.21 -0.1c5.63,3.51 18.95,11.81 28.49,17.62zm-2.08 -63.49l-0.43 -0.03 10.64 7.65c0.38,0.38 0.69,0.73 0.93,1.05l-0.1 0 -14.04 -2.74 -0.01 0.02c-3.39,-1.54 -7.96,-2.76 -6.08,3.09l3.3 3.48 -3.16 7.47 0.83 2.13c-1.49,-0.76 -3.09,-1.52 -4.82,-2.26l0.3 -2.43c-1.43,-1.11 -0.81,-0.2 -1.4,-2.39l-1.4 -2.33c-2.14,-8.72 -13.02,-15.12 -20.66,-19.73l-20.37 -10.58c-5.2,-1.16 -4.76,0.39 -7.92,2.5 -1.63,-3.1 -3.96,-7.47 -6.12,-10.66 -2.95,-4.33 -5.93,-5.62 -12.06,-6.13l0 -13.98c2.24,1.5 2.34,2.06 5.01,3.38l8.37 4.22c0.26,0.16 0.61,0.37 0.87,0.53 0.26,0.16 0.61,0.36 0.87,0.52l4.36 2.64c0.28,0.15 0.64,0.33 0.93,0.47 0.29,0.14 0.67,0.3 0.97,0.43 8.97,4.11 42.98,21.85 61.19,33.68zm20.93 -238.88c1.55,4.17 -3,2.19 4.19,2.8l0 -2.8 -4.19 0 0 -4.19c-2.2,-1.06 -3.95,-1.2 -5.96,-2.44 -1.97,-1.21 -1.26,-1.43 -4.88,-3.51 -7.3,-4.2 -6.98,-4.86 -11.54,-5.24 4.66,-6.36 2.79,-0.2 12,-1.94 14.71,-2.77 -2.59,-6.8 25.73,4.76l2.89 1.29c4.99,2.6 -0.2,1.91 6.93,3.21l4.21 -1.13c6.48,-0.02 4.73,-1.11 8.63,-4.52 2.15,-1.87 1.64,-0.78 3.2,-2.34 2.47,-2.47 1.05,-0.37 2.15,-3.6 3.85,-0.53 1.01,1.2 5.15,-2.05l8.12 -5.51c14.3,-13.43 19.93,-12.14 24.48,-17.5l11.2 -0.72c-2.33,-4.28 -3,-3.5 -7.63,-5.71l-22.16 -11.38c-0.3,-0.14 -0.68,-0.28 -0.98,-0.42l-26.48 -14.09c-7.34,-4.02 -26.7,-19.01 -33.66,-20.87 -4.3,3.15 -2.26,-0.9 -2.8,5.6 -5.42,-1.27 -9.72,-1.77 -13.85,-5.74l-2.86 -2.79c-4.08,-3 -7.7,-0.85 -15.87,-4.98 -0.3,-0.15 -0.68,-0.3 -0.98,-0.45 -0.29,-0.15 -0.68,-0.3 -0.96,-0.45 -0.29,-0.15 -0.66,-0.32 -0.93,-0.48 -8.01,-4.55 -20.27,-13.87 -30.89,-16.68 -8.1,-2.14 -11.32,-4.77 -19.73,-4.26 -7.2,0.44 -5.96,-3.19 -12.04,-4.52 -2.67,-0.58 -3.05,-0.02 -6.12,-0.88 -5.25,-1.48 -29.92,-14.94 -32.83,-18.91 21.06,0 17.75,3.6 30.78,4.18l21.7 4.87c3.42,0.93 3.42,1.84 6.94,2.85l46.86 18.88c0.3,0.13 0.69,0.27 0.99,0.4l61.18 31.13c0.9,0.49 2.25,1.37 2.62,1.58l11.84 6.34c0.27,0.15 0.63,0.34 0.91,0.49 0.36,0.21 1.38,0.83 1.75,1.04 7.43,4.24 11.1,7.79 21.41,7.96 7.39,3.86 29.59,10.16 44.93,18.01 2.2,1.13 1.51,0.98 4.72,2.27l29.2 14.13c0.17,0.11 0.6,0.31 0.88,0.5 8.36,-0.71 13.4,-3.55 19.86,-6.74 3.79,-1.88 4.63,-3.13 8.48,-3.96 4.6,-0.98 7.6,0.29 11.63,-1.84 1.75,-7.68 -10.92,1.75 -12,-11.19 5.02,0.42 5.46,1.16 9.11,3.48 7.75,4.92 2.26,0.6 6.59,7.71 3.17,1.78 7.92,1.04 12.34,0.68 0.28,0.24 0.76,0.18 0.91,0.65 1.89,5.89 45.22,4.63 39.25,47.59 -0.58,4.16 -8.32,15.83 -11.22,18.12 -4.02,2.85 -7.56,8.14 -7.89,12.68 5.2,2.31 5.66,1.4 10.95,-7.33 1.67,-1.76 4.43,-4.07 7.09,-5.04l1.1 5.37c-3.37,5.65 -7.09,11.01 -11.17,15.12 -3.34,3.37 -10.75,10.02 -15.76,9.54 -5.87,-0.08 -9.88,2.93 -12.06,7.52l0 2.8c1.65,4.65 3.52,6.28 7.6,8.36 7.25,4.16 12.59,15.71 18.78,22.68 4.13,4.64 5.02,6.43 8.82,12.34 3.03,4.71 6.55,7.76 8.99,10.78l3.89 4.71c0.22,0.36 0.52,0.81 0.69,1.05l1.37 1.9c0.27,0.32 1.13,1.21 1.41,1.48 2.47,2.42 0.2,0.55 2.9,2.22 -4.38,7.76 -1.46,13.79 1.19,8.1l-2.1 -2.21c1.56,-3.47 2.56,-5.69 -0.3,-10.24l15.56 1.06 14.33 -1.45c-1.7,3.31 1.9,1.66 -4.64,3.92l-17.76 1.29c6.75,15.18 0.53,6.09 3.49,16.81 1.94,7.02 -1.72,9.47 -9.48,8.88 -3.75,0.58 -3.59,0.01 -4.26,4.82 1.14,2.03 0.68,1.48 1.4,4.19l8.39 0c-2.54,4.8 -0.38,2.83 -3.07,3.57 -5.1,1.39 -0.52,0.27 -2.68,-0.32 -8.1,-2.21 -32.85,-18.58 -41.73,-24.3 -2.16,-1.39 -1.9,-1.24 -4.03,-2.96l-4.82 -3.58c-5.16,-2.98 -15.77,-7.96 -17.8,-12.96l4.2 0c1.78,-3.72 1.28,-1.5 1.4,-7 9.39,0.78 1.8,3.42 11.19,4.2 -1.95,1.84 -2.79,1.38 -2.71,5.47 0.17,7.98 9.39,11.31 17.16,11.31l3.37 0c0.05,-7.03 7.45,-10.47 -10.31,-15.38 -0.26,-9.21 5.69,0.21 -1.49,-12.88 -10.72,0.72 -0.83,3.23 -9.15,1.69 -4.82,-4.77 -8.59,-11.16 -12.14,-16.95 -3.03,-4.92 -8.37,-14.08 -9.36,-19.84 -1.09,-3.36 -3.69,-9.52 -6.14,-12.19 -6.34,0.2 -6.58,-0.01 -7.02,5.59 -2.97,3.46 -4.73,11.9 -4.85,19.57 -0.14,8.55 -0.55,14.55 3.76,20.94 -6.86,2.68 -8.77,7.43 -8.9,15.4l-11.21 -4.51 -0.85 4.57c-6.6,1.35 -6.54,-1.67 -9.76,-2.8 -3.45,-8.27 -3.4,-25.73 -1.69,-36.23 0.93,-5.67 2.26,-6.54 2.9,-15.54 0.49,-6.88 1.69,-9.89 3.49,-13.16 4,-2.55 2.67,-1.8 7.16,-3.59 0.83,-8.42 -2.18,-5.97 -0.74,-15.85 4.57,-3.12 6.21,-0.69 7.98,-7.94 1.64,-6.67 2.4,-10.77 -0.39,-16.77l3.14 -3.09c2.08,-2.77 0.39,0.95 1.92,-3.72l1.7 -6.73c0.09,-0.31 0.28,-0.7 0.36,-0.99 2.24,-7.47 -5.19,-5.41 -13.57,-5.98l-0.18 -5.03c0.01,-0.11 0.08,-0.55 0.09,-0.64 0.01,-0.08 0.15,-0.42 0.09,-0.61l-11.78 -5.75 -0.52 -1.03c-8.45,0 -4.29,0.52 -9.15,-2.34 -3.43,-2.03 1.18,-0.2 -3.69,-1.89 -1.4,-0.49 -4.04,-0.98 -5.71,-1.36 0.55,1.02 1.62,3.62 2.37,4.77 2.33,3.56 1.36,1.03 3.09,3.83 2.56,4.13 1.61,6.9 1.31,12.38l3.1 -0.45c2.92,5.27 11.85,7.01 21.12,11.63l-0.14 1 0 3.62c-3.65,-1.37 -4.06,-1.96 -6.84,-3.41 -2.38,-1.24 -4.95,-2.41 -7.45,-3.7 -5.62,-2.9 -9.75,-4.41 -14.44,-8.69 -16.68,-8.84 -22.78,-3.66 -37.72,2.02 -10.2,3.88 -8.96,3.21 -16.26,9.04 -4.48,3.58 -10.79,7.67 -10.68,15.51l6.21 3.24c7.59,7.63 -1.54,6.91 12.29,15.7l27.33 19.68 7.65 5.11c6.2,-0.34 8.37,-0.32 12.36,9.42 -5.21,10.53 -9.62,9.57 -13.4,18l-3.24 2.39c-3.74,1.86 -0.21,-0.5 -4.32,2.41 -2.1,1.48 -1.45,1.25 -2.27,1.97 -1.82,1.59 -2.5,2.39 -5.22,3.42l-7.43 4.9c-2.43,22.12 -15.28,4.94 -22.17,15.27 -0.25,0.37 -0.94,1.74 -1.16,2.12l-1.36 2.47c-5.46,-0.7 -12.44,-4.07 -17.1,-7.97 -4.07,-3.41 -9.43,-9.71 -13.66,-12 -1.16,2.1 -0.98,0.25 -1.01,3.37 -0.06,5.91 2.33,3.18 4.59,12.61 -5.79,-1.03 -10.18,-5.86 -14.53,-11.36 -9.19,-11.63 1.38,-7.93 -1.47,-18.17 -4.46,-16.02 -8.63,2.6 -9.15,-27.8 -0.13,-7.38 0.77,-9.74 -3.09,-12.63l-0.52 -0.79c-4.42,-3.44 -3.26,-1.83 -7.99,-3.82l-7.42 -3.74c-3.78,-1.88 -0.6,0.06 -3.56,-2.03 -0.34,-0.24 -1.21,-1.02 -1.53,-1.26 -6.25,-4.73 -5.91,-2.08 -7.47,-7.92 10.08,0.22 4.35,4.19 16.78,4.19 -0.53,-6.34 -0.92,-4.64 -6.31,-7.67 -3.26,-1.84 -6.18,-2.93 -9.23,-4.76l-12.62 -8.56c-4.13,-3.91 -2.47,-5.58 2.93,-4.23l16.15 6.33c6.48,2.71 18.38,5.3 21.67,9.49 4.22,-1.19 1.33,0.34 4.2,-1.65l-0.26 -8.53c-8.21,0 -6.42,-1.05 -18.84,-4.68l-5.76 -2.63c-7.24,-2.84 -23,-7.5 -31.05,-12.31l-19.62 -12.55c6.86,0 3.87,-0.3 8.13,1.66l34.44 13.12c7.55,3.52 12,6.2 20.37,6.2zm264.28 93.52c3.9,-1.61 4.36,-2.77 5.48,-6.95 2.22,-1.17 1.11,0.67 1.81,-2.72 0.36,-1.74 0.05,-3.62 -0.03,-5.43 -0.17,-3.68 -0.13,-7.22 0,-10.87 -0.21,-7.3 0.11,-6.49 -3.9,-10.2 1.61,-2.6 2.87,-7.17 1.85,-11.21 -1.88,-7.47 0.4,-2.02 -2.86,-5 3.12,-15.82 4.07,-4.32 4.09,-18.67 0.01,-6.81 2.31,-18.02 -0.8,-23.28 -5.62,-2.44 -8.11,-4.2 -12.11,-8.07 -6.27,-6.07 -3.97,-5.09 -3.27,-13.49 -5.64,-1.35 -2.36,-0.8 -5.59,-0.01 0.56,-0.85 -1.86,-6.27 9.01,-0.77l6.79 3.14c0.29,0.15 0.65,0.33 0.93,0.48l1.78 1.01c6.92,4.12 3.28,-0.58 5.26,4.76l4.05 -1.92c0.29,-41.63 3.02,-33.14 37.91,-33.14 12.12,0 24.24,0 36.36,0 15.15,0 20.53,-2.24 30.19,5.47 0.43,12.32 -4.65,14.42 -11.3,18.95l-46.88 -0.26c-7.17,-0.01 -9.45,-0.71 -13.02,3.68 0.55,1.28 -1.7,4.92 11.59,4.61 2.35,-0.05 5.02,-0.52 7.13,-0.52l7.38 1.81c-11.97,2.22 -21.17,0.7 -30.19,7.56 -0.89,12.28 -0.95,10.37 3.14,12.78l0.02 3.14c5.31,0.44 10.85,4.29 13.97,6.96l1 -0.4c1.62,2.07 2.57,2.48 7.31,2.84l28.06 -1.27c0.23,0.27 0.53,0.37 0.64,0.85 0.12,0.49 0.52,0.67 0.68,0.84 0.49,0.51 0.74,3.35 6.61,3.29 2.79,2.65 -6.34,2.09 4.66,2.27 -0.89,1.98 -5.8,7.94 -9.06,9.26 -9.3,3.76 -8.85,-4.11 -14.04,6.39 -15.39,-3.76 -13.87,0.59 -25.97,1.47 -6.34,0.46 -24.78,-1.12 -28.6,3.06 -2.34,2.57 -2.45,9.79 -4.4,11.15 -3.72,2.59 -5.27,-2.85 -9.09,3.42 -2.94,4.81 -5.26,23.37 0.13,26.9 4.13,3.82 1.81,-0.57 22.49,-1.72 5.84,-0.32 18.64,-0.06 22.82,-2.42 2.47,-1.39 0.81,-0.16 2.94,-2.27l0.39 -1.14c8.84,1.23 19.19,-0.07 28.4,-0.2 2.88,-0.05 11.69,-0.28 14.04,0.35 6.58,1.77 3.8,3.67 4.14,11.48l-4.53 3.78c-6.74,4.41 -18.76,6.46 -21.51,7.85 1.15,2.64 -0.09,0.56 2.31,2.29l4.61 3.22c-7.97,1.28 -24.31,1.59 -31.22,6.6 -12.25,-1.3 -21.07,4.88 -30.15,2.46 -7.26,-1.43 -25.97,1.37 -36.69,0.9 -0.03,-6.55 -0.41,-8.6 1.84,-13.7 1.99,-4.51 2.8,-5.19 3.4,-9.39zm200.95 15.1c-3.89,0.44 -1.8,-0.58 -5.5,1.4 -5.61,3 -1.07,0.82 -3.46,3.53 -8.53,0.56 -16.15,9.6 -38.19,8.74 -7.47,-0.29 -4.3,-0.66 -8.3,-2.19 -9.3,-3.56 -5.31,2.47 -11.16,5.4l-0.7 -20.61c-19.99,-13.47 -7.48,-17.25 -9.87,-39.15l-4.02 -3.27 0.16 -2.33c-2.86,1.47 -8.4,-3.34 -13.73,-6.83 -3.56,-2.34 -0.81,-1.72 -5.43,-2.96 5.11,-9.66 1.04,-2.05 -1.4,-11.19 6.88,-1.83 0.96,-2.59 9.6,-2.79 3.46,3.29 9.76,7.64 14.18,7.84l0 -0.01c3.1,-1.89 1.58,-0.08 3.32,-3.81 1.17,-2.51 0.77,-3.02 0.87,-5.65 3.01,-0.35 6.7,0.78 10.03,-9.44 2.06,-6.32 0.11,-12.71 2.1,-18.8 2.41,-7.37 3.09,-5.86 3.46,-16.34 0.4,-11.56 3.41,-8.02 3.16,-16.73l-6.91 -2.8c0.09,-9.95 5.21,-16.44 13.66,-17.61 7.85,-1.08 4.05,0.26 8.64,2.14 7.87,3.22 11.54,0.09 19.05,-0.12 7.91,-0.22 12.13,1.6 19.21,1.6 7.89,1.73 16.31,7.54 21.86,11.61l26.02 23.27 3.02 0.89c-2.19,1.81 -0.07,1.98 -2.54,0.6 -0.83,17.99 8.96,1.01 8.02,47.61 -0.03,-2.18 -0.16,-4.92 -0.43,-8.45 -1.09,0.01 -4.84,0.41 -8.3,1.07l-9.27 30.19c-1.31,6.07 0.98,6.03 3.88,8.51 0.24,0.21 0.73,0.48 1.03,0.79l-2.4 6.73c-2.96,6.97 -29.16,29 -39.66,29.16zm25.67 -52.32c2.17,-1.05 1.76,2.48 2.88,-2.12 1.86,-7.63 -0.36,-3.07 -1.48,-4.83 -3.87,2.65 -5.02,2.1 -1.4,6.95zm-224.75 -223.04c5.7,-0.95 2.51,1.65 6.52,-2.59 2.01,-2.12 1.76,-2.85 2.4,-6.37 -5.58,1.7 -7.34,3.36 -8.92,8.96zm138.04 -60.44c0.06,-0.05 7.91,-3.08 0,-9.39 -0.11,0.12 -2.7,-1.06 -2.61,4.43 0.14,8.82 0.65,2.75 2.61,4.96zm80.4 310.41c5.93,-0.73 10.12,-3.62 9.25,-10.32 -4.09,0.7 -2.95,0.34 -5.52,2.72 -4.92,4.56 -3.41,4.08 -3.73,7.6zm-271.08 -207.2c10.76,4.37 12.04,0.96 13.79,-1.9 -1.6,-1.04 -0.84,-1.17 -3.56,-1.82 -9.31,-2.26 -10.19,3.67 -10.23,3.72zm205.97 231.55l-0.74 -5.46c3.47,-2.23 -3.16,-1.17 3.67,-1.74 3.64,-0.31 1.86,-0.04 4.67,1.09 -3.38,9.28 -5.06,6.07 -7.6,6.11zm2.89 2.6c4.06,-3.53 6.66,-5.53 6.13,-10.19 -4.13,-1.76 -8.93,-1.25 -13.38,0.78l1.27 7.35 5.98 2.06zm-225.17 -224.87c3.55,0.03 4.09,0.22 6.37,-2.09 5.2,-5.29 1.37,-5.63 1.37,-5.63 -5.95,-2.26 -12.24,-0.75 -7.74,7.72zm-95.07 184.63c3.2,-0.54 6.21,-4.67 7.41,-8.4 -2.23,-1.96 1.78,-1.09 -4.12,-1.98l-3.16 -0.31 -0.35 -4.7 -2.24 0 -23.54 -11.8c-13.75,-8.26 -18.1,-8.41 -27.18,-14.36l-5.12 1.37 0.07 9.4c3.67,-2.03 8.57,2.74 18.26,7.77 1.73,0.9 2.96,1.48 4.58,2.42 0.26,0.15 0.61,0.36 0.87,0.52l1.7 1.1c4.26,2.8 6.53,5.15 11.81,6.38l2.79 13 0.01 2.37c-2.43,-0.94 -0.35,-1.28 -3.42,0.01 -11.64,-8.32 -2.76,-9.01 -14.65,-14.1 -6.25,-2.68 -7.15,-3.18 -8.51,-8.28 -6.28,0 -12.67,1.15 -16.21,1.05 -6.6,4.46 -2.61,28.49 3.62,39.11 9.29,1.4 9.67,-1.76 17.34,-0.27 7.92,2.67 10.02,1.03 15.31,-1.52 5.72,-2.75 7.12,-2.05 12.08,-8.03 0.18,-0.22 0.5,-0.63 0.71,-0.97l-3.72 -2.61c-0.26,-0.16 -0.68,-0.4 -0.92,-0.54 -0.24,-0.15 -0.71,-0.42 -0.9,-0.53 -0.2,-0.12 -0.63,-0.31 -0.92,-0.51l0.19 -2.81 6.9 -1.57c0.13,0.52 0.87,2.8 1.03,3.12 1.06,2.08 0.81,1.65 1.85,2.97 5.61,-2.8 6.84,-1.43 8.43,-7.3zm287.52 -291.66l3.18 0.5c-2.79,8.74 -4.91,2.96 -4.29,12.98 4.32,-0.72 12.68,-6.72 9.52,-13.3 -1.48,-3.11 -1.47,2 -3.17,-5.68l0 -0.37c6.84,-1.64 1.07,1.96 3.35,-2.05 1.41,-2.47 0.84,-14.87 0.71,-15.11 -7.95,-7.11 -5.22,-1.4 -12.69,-1.78 -6.88,-0.34 -5.82,-5.59 -17.13,-4.21 -13.77,1.69 -16.36,17.87 -15.81,27.66 1.8,8.82 -4.9,11.75 -3.07,25.25 11.26,0.22 35.21,-21.26 39.4,-23.89zm-113.86 37.85c4.08,1.73 4.21,-0.12 4.73,-3.28 0.06,-0.03 3.83,0.6 4.4,-7.5 1.27,-18.04 -7.72,-5.61 -11.37,-19.55 -0.28,-1.06 -0.64,-2.79 -1.09,-3.74 -1.53,-3.26 -0.19,-1.02 -2.23,-3.08 -2.4,-2.63 -3.55,-5.66 -6.93,-7.38 3.52,-7.18 2.7,1.28 2.94,-8.32 -7.1,-0.09 -6.7,1.47 -9.57,1.82 -3.15,0.38 -3.21,-1.72 -8.17,-2.65 -10.37,-1.93 -31.69,-2.6 -40.93,6.1 -4.25,3.99 -2.32,15.99 -3.12,23.01l0.59 2.47c-2.6,2.36 -0.88,-0.25 -2.68,2.98 -2.39,4.32 -2.28,18.96 -3.49,26.49 -1.88,11.68 -4.17,20.1 -2.42,33.28 12.91,1.15 24.62,-5 34.91,-8.73 5.02,-1.81 8.74,-0.04 10.17,-6.08 2.22,-0.35 12.4,-4.37 14.36,-5.48 1.08,-1 0.41,-4.79 4.97,-10.57 3.32,-4.23 4.97,-5.95 4.52,-11.93 -0.74,0 -2.07,0.02 -2.45,-0.09 -2.37,-0.73 -1.48,-0.44 -2.8,-1.31l5.6 -0.34 3.02 -0.01c4.67,-1.78 1.2,3.7 3.95,-3.98 0.59,-1.64 0.78,-4.9 1.09,-6.17 0.25,6.47 -1.16,9.31 2,14.04zm-92.58 189.99c-6.14,1.92 -4.87,17.85 -4.05,20.04 8.34,0.86 6.31,-0.76 10.87,-3.42 1.52,-0.89 4.28,-1.5 6.16,-2.49 7.56,-4 2.79,-1.21 4.57,-4.27l20.84 -13.99c-0.89,12.11 -2.68,0.48 -3.27,10.79 4.93,0.56 2.8,3.47 10.48,-7.66 0.17,-0.23 0.4,-0.58 0.56,-0.81l6.02 -9.57 -3.23 -0.32c-0.17,-5.02 -0.84,-5.36 2.73,-7.65l0.5 7.97c6.35,-3.34 -1.76,-9.35 -4.64,-14.78 -4.87,-9.19 -7.72,-5.08 -14.29,-4.49 -3.76,0.34 -18.83,-10.11 -28.05,0.49 -1.81,2.09 -2.06,0.6 -2.19,4.46 -0.35,9.97 1.61,5.41 3.04,6.99l-0.01 0.01c4.76,0.12 16.06,7.64 20.33,11.41l3 3 -0.1 0.97c-10.61,-0.91 -0.98,-5.8 -13.88,-2.8 1.38,5.19 1.41,1.81 2.79,7 -4.73,-0.4 -8.03,-2.92 -11.99,-6.13l-1.36 -1.28c-0.13,-0.11 -0.41,-0.45 -0.63,-0.66 -3.69,1.64 -3.35,2.3 -4.2,7.19zm219.34 -211.7c-3.72,4.07 -6.63,5.85 -6.65,12.42 8.26,1.04 3.51,0.54 10.38,-4.83 3.02,-2.36 -0.67,-0.51 4.35,-2.55l-0.68 5.95c-1.98,4.06 -1.22,1.05 -2.97,4.75 -3.7,1.76 -4.98,3.52 -7.65,5.96 -2.61,2.39 -3.63,3.17 -7.23,5.35 -2.37,1.44 1.94,-0.29 -2.69,1.42 -0.34,0.13 -0.73,0.22 -1.09,0.33l-5.8 1.48c-14.06,6.28 -1.88,16.78 4.23,23.54l11.56 14.91c2.07,2.63 1.61,2.38 3.45,4.95 3.39,4.71 2.36,3.01 5.41,4.63 2.99,1.05 4.81,6.11 6.67,8.55 1.83,2.4 4.89,6.03 6.93,8.38 5.09,5.83 11.1,7.12 17.15,15.24 4.74,0.41 6.89,2.47 11.21,5.4 2.32,1.57 2,1.41 4.25,2.75l25.75 16.21c9.05,5.32 6.91,9.04 10.37,20.39 -7.33,8.31 -21.23,-17.01 -38.16,-24.77l-2.97 -1.22c-0.28,-0.15 -0.64,-0.34 -0.9,-0.49 -4.3,-2.54 -1.11,-2.58 -6.92,-4.43 -1.38,0.64 -12.46,8.19 -13.98,9.59l-10.2 -4.9c-5.1,-2.33 -4,-4.12 -9.99,-6.21 -0.11,-1.13 -0.15,-1.81 -0.14,-2.18l0.02 -0.23c-0.88,-3.56 -0.11,-1.47 -2.13,-4.23 -12.44,-16.97 -1.56,-2.54 -4.56,-10.19 -0.53,-1.35 -3.82,-3.95 -5.43,-4.73 -2.12,-1.03 -4.81,-1.51 -7.79,-2.1 -0.17,-7.87 -0.45,-0.18 2.1,-6.63 -3.89,-2.85 -1.99,-0.52 -3.96,-5.61 -5.67,-0.22 -4,0.77 -4.32,0.82 -5.22,0.85 1.55,-0.51 -7.39,-3.06 -3.72,-2.69 -6.49,-8.8 -11.95,-11.94 -3.84,-2.58 -4.72,-2.59 -9.02,-4.98 -3.06,-1.7 -1.31,-1.13 -4.31,-2.68 -2.1,-1.09 -3.45,-1.3 -4.85,-1.77 -0.67,-3.24 -1.21,-3.66 -0.66,-5.96 6.95,0 3.6,-0.2 14.39,5.6l1.7 2.79c2.06,-8.93 0.46,-7.95 -2.66,-15.17 -1.45,-3.35 -4.8,-9.27 -6.27,-12.1 -11.91,-1.14 -12.62,9.68 -8.45,18.88l-2.15 2.81c-3.89,5.62 -2.76,18.18 -2.46,26.56l0.29 2c-7.32,3.56 -6.2,5.58 -5.05,13.55 -4.09,-1.32 -1.53,-0.01 -4.11,-3.39 -0.08,-0.1 -1.22,-2.37 -1.35,-2.59 -12.54,-1.84 -5.7,7.35 -12.88,0.87 -3.88,-3.5 -6.06,-8.89 -5.57,-14.63 0.57,-6.53 2.24,-9.7 2.84,-16.7 1.43,-16.53 4.11,-16.88 -1.17,-23.83l-0.14 1.37c-2.05,-1.04 -3.25,-1.04 -4.96,-1.93 -2.39,-1.23 -0.39,-0.1 -2.52,-1.55 -2.36,-1.61 1.02,-0.02 -2.17,-1.67l-0.48 -0.24c-8.21,2.02 -4.17,1.39 -8.35,9.62l-0.82 -13.4c-7.32,-0.58 -5.52,0.36 -6.67,6.41 -1.64,8.64 -3.03,4.93 -2.45,11.15 0.04,0.01 2.14,0.17 2.46,0.3 4.19,1.7 1.46,-0.22 4.08,2.5l-13.89 16.17c-2.07,3.34 0.4,-2.54 -1.42,3.35 -3.28,5.08 -39.71,25.81 -49.45,25.83l-5.52 -0.59c-2.4,3.99 -1,2.79 -8.28,3.44 -29.43,2.66 -9.18,-3.72 -30.04,-2.85 -0.76,-5.08 -0.79,-2.56 -1.57,-6.42 -0.45,-2.2 -0.51,-4.08 -1.02,-6.63l-6.08 -3.43 -3.73 -8.43 1.74 -35.87c0.04,-12.67 1.23,-10.83 3.3,-21.11 1.72,-8.51 -0.33,-16.53 2.27,-23.75l1.34 18.15c0.85,3.27 -0.05,1.24 1.5,3.42 4.47,-2.64 3.36,-1.66 3.54,-15.93 0.14,-11.28 2.59,-4.16 3.84,-13.86 0.7,-5.41 -0.39,-10.24 1.57,-16.19 1.11,-3.36 1.73,-2.27 2.61,-6.42 0.32,-1.51 0.49,-2.34 0.28,-3.87 -1.31,-9.55 3.42,7.44 -1.36,-3.66 -0.14,-0.32 -0.41,-0.79 -0.69,-1.13 -5.82,3.66 -1.56,4.02 -4.2,9.71 -4.21,-6.48 1.36,-18.93 3.67,-25.58 8.37,-1.64 8.72,-4.82 15.05,-2.56 17.14,6.13 16.05,0.2 35.95,2.88 10.03,1.35 5.27,3.92 16.36,4.84 7.98,3.29 16.57,11.13 23.02,17.86 3.18,3.32 6.81,8.13 9.49,11.45 2.92,3.62 7.01,8.19 6.58,13.23 1.25,11.67 5.14,0.43 4,27.13 -5.67,2.03 -11.6,8.03 -6.43,16.86 4.1,-1.27 3.06,-2.33 5.6,-5.47 2.44,6.38 -0.62,6.05 4.61,11.14 2.27,-0.14 -0.42,-0.95 4.45,0.78 4.83,1.71 -0.88,0.55 4.86,2.12l0.07 1.02c6.69,-2.36 2.88,-0.16 7.93,-11.34 1.43,-3.18 1,0.43 1.6,-5.13 2.36,-22.09 0.04,-11.93 8.38,-18.12l0.46 -5.78c4.19,-7.21 8.36,-23.68 7.84,-33.12 -2.61,0.73 -3.2,1.41 -6.69,1.66 -6.99,0.5 -7.3,-1.14 -8.26,-1.91 5.75,-1.73 5.67,0.88 8.24,-4.2 -3.1,-4.91 -2.38,-1.65 -7.59,-3.7 -2.96,-1.16 -4.65,-2.92 -8.84,-4.14l-2.09 -0.03c1.97,-4.8 16.49,-10.44 24.19,-14.47 26.09,-13.66 73.64,-4.12 80.06,22.01 0.47,7.23 2.33,17.84 -0.9,23.74 -1.39,2.54 -9.27,13.23 -10.87,14.36zm98.14 247.61c3.24,-2.48 2.83,-7.8 3.1,-12.66 0.61,-10.89 -0.66,-11.2 -4.71,-12.75 -1.41,3.99 -1.45,7.4 -1.59,12.75 -0.36,13.31 0.35,11.12 3.2,12.66zm44.5 79.66l1.35 -1.41c-0.57,-7.34 -0.06,-5.5 -5.51,-5.85 -3.23,-0.21 -1.89,0.01 -4.57,-1.73l-4.3 -2.95 0.69 -0.19c-4.23,-9.52 0.78,-21.27 1.3,-31.14 0.63,-12.04 0.42,-23.25 2,-35.06 2.14,-1.33 6.23,-2.18 8.68,-3.25 0.32,-6.87 -0.76,-7.27 -2.62,-12.13 2.06,-2.81 6.33,-4.41 3.28,-13.54 -1.33,-3.99 -4.25,-7.75 -0.35,-11.82 -1.55,-4.34 1.01,0.1 1.13,0.08 0.18,-0.03 0.65,-0.08 0.87,-0.13l3.77 -1.17c0.2,-16.38 -6.44,-7.51 -0.81,-20.36 2.41,-5.51 1.35,-17.9 1.13,-24.23 43.03,-0.28 23.63,18.22 24.42,32.57 0.61,3.84 -3.91,24.13 -5.08,28.95 -2.06,8.51 -3.99,20.87 -5.08,29.49 -1.25,9.89 -1.68,62.63 -2.51,64.58l-4.44 1.18c-1.15,5.51 -3.13,7.56 -6.17,12.42l-1.43 2.24c-1.95,3.31 -0.14,1.45 -2.7,4.54 -5.9,-0.18 -8.17,-2.08 -11.43,-5.61 10.13,-3.63 5.86,-0.68 8.38,-5.48zm-138.93 -206.88c0.14,-0.98 1.14,4.02 0.06,0.27 -9.52,-4.2 -29.08,-26.25 -33.54,-36l33.48 35.73zm-234.24 189.5c-1.87,-3.13 -1.45,-0.04 0,-3.89 2.12,1.69 2.49,2.21 4.83,3.86 4.84,3.4 13.22,7.45 14.75,13.21 -4.86,-1.14 -6.46,-3.18 -9.8,-5.58l-7.48 -5.22c-1.81,-1.62 -0.75,-0.56 -2.3,-2.38zm174.83 -62.77l0 -1.9 5.77 0.92c-0.31,0.19 -0.73,0.18 -0.9,0.57 -0.18,0.4 -0.76,0.4 -1,0.43 -2.88,0.37 -1.16,0.3 -3.87,-0.02zm88.87 -52.31c-12.47,-0.02 -6.68,6.67 -9.74,17.46 -5.17,18.24 -1.55,4.18 -3.69,22.78 -1.1,9.47 -9.38,41.09 -2.23,48.48 6.73,5.36 18.51,-1.4 23.2,-2.83 5.42,-1.65 6.74,-2.53 10.69,-3.73 7.65,-2.33 7.3,-0.28 10.64,-6.6l1.12 0.38c6.88,0.16 6.3,-2.15 14.65,-4.52 2.14,-6.1 -0.36,-4.17 2.96,-9.6 1.51,-2.46 3.83,-5.32 5.56,-8.56l1.02 -2.02c0.84,-1.82 0.62,-1.58 1.28,-3.2 0.35,-0.88 1.22,-2.71 1.94,-4.6 1.62,-4.24 1.55,-6.91 1.67,-11.62 0.09,-3.85 0.21,-8.95 -0.14,-12.72 -0.68,-7.3 -1.67,-4.77 -3.98,-9.5 -2.55,-5.23 0.39,-15.27 -8.62,-12.11l-3.74 2.3c-8.35,-3.6 -5.03,-3.72 -18.16,-3.88 -7.42,-0.09 -15.51,-0.37 -22.82,0.62l-1.61 3.47zm-278.77 22.56c-0.99,10.33 -2.51,8.51 -5.8,10.83l-3.02 2.43 1.6 -12.27 7.22 -0.99zm360.51 51.02c-0.18,-13.86 2.25,-10.93 2.81,-17.98l-0.1 2.78c-0.24,6.53 -2.67,12.21 -2.71,15.2zm-312.76 -88.45c4.66,0.85 12.24,3.04 14.44,6.18 6.47,-2.03 1.07,-1.75 7.53,-2.9l0.52 12.49c-0.85,4.29 0.4,1.58 -2.48,3.8l0.39 -5.12c-3.06,-5.95 -2.02,-4.61 -8.6,-8.06 -4.75,-2.48 -10.3,-1.67 -11.8,-6.39zm372.85 14.45c1.17,-10.64 6.27,-11.63 2.99,-26.57 -1.36,-0.81 -4.72,-2.49 -6.31,-3.58l-1.66 -1.3c-0.32,-0.25 -1.13,-1.08 -1.38,-1.29 -4.41,-3.89 -17.31,-1.7 -23.1,0.58 -0.36,8.57 2.19,4.72 -1.29,20.99 -1.02,4.77 0.36,2.16 -1.96,5.52 -1.12,-5.06 -0.56,-23.51 0.94,-27.91 7.67,-3.63 15.88,-4.92 24.84,-4.53l6.65 6.13c14.91,12.01 3.27,29.78 0.28,31.96zm-509.47 133.48l1.85 -7.26c10.09,-3.61 8.94,-0.04 17.15,-0.2 -2.59,5.3 1.26,0.28 -5.39,3.62 -0.27,0.14 -0.65,0.24 -0.91,0.37 -5.23,2.71 -2.77,3.28 -12.7,3.47zm287.16 -77.53l0.42 0.41c-0.03,-0.02 -0.56,-0.27 -0.42,-0.41zm-103.5 -236.36l8.39 0c-1.6,4.84 0.39,1.4 -8.39,1.4l0 -1.4zm-8.39 -4.2l7 0 0 1.4 -7 0 0 -1.4zm-8.39 -4.2l0 0zm-8.39 -4.19c0.66,-0.66 7.93,0.76 2.52,0.75 -2.56,0 -4.55,1.28 -2.52,-0.75zm-6.99 -4.2l0.41 0.42c-0.02,-0.03 -0.55,-0.28 -0.41,-0.42zm-53.15 144.06c1.49,-1.49 5.3,2.22 1.56,0.73 -0.03,-0.02 -3.9,1.61 -1.56,-0.73zm5.59 -9.79c-0.69,2.48 1.38,0.73 -1.11,2.12 -2.11,1.19 -0.6,0.46 -3.08,0.68l0 -3.5 4.19 0.7zm-9.79 5.59c0,2.15 0.44,1.4 -2.09,1.4l-0.78 -2.79 2.87 1.39zm-212.58 314.68l0.42 0.42c-0.03,-0.03 -0.56,-0.28 -0.42,-0.42zm60.14 -22.37c6.74,0.13 2.27,-0.21 5.97,1.15l18.31 8.14c0.51,0.32 2.22,1.55 2.46,1.73 7.98,5.91 7.18,5.37 12.41,12.75 -4.07,0 -4.22,0.39 -7.67,-0.76l-15.14 -8.58c-9.52,-5.71 -10.3,-5.42 -16.34,-14.43zm-53.15 -22.38c7.61,-3.65 14.56,1.19 21.08,5.5 4.78,3.16 3.7,3.79 9.69,4.29 1.7,-7.31 0.62,-2.39 0,-9.79 7.79,0.65 3.67,3.45 12.59,4.2l0 4.19c-0.05,0.02 -4.27,-0.34 -1.49,5.33 1.74,3.55 2.98,3.51 7.08,4.46 -3.93,5.88 -4.99,4.39 -12.3,2.61 -13.92,-3.4 -6,-1.76 -19.2,-8.87 -4.18,-2.24 -2.66,-1.35 -6.09,-3.7l-6.72 -4.46c-0.34,-0.24 -1.34,-0.9 -1.66,-1.14 -2.44,-1.83 0.18,1.7 -2.98,-2.62zm-68.53 0l0.42 0.42c-0.03,-0.03 -0.56,-0.28 -0.42,-0.42zm-37.76 -39.16c0.66,-0.66 7.93,0.76 2.52,0.75l-0.77 -0.18c-0.17,-0.05 -4.18,1.86 -1.75,-0.57zm-1.4 -2.8l-5.59 0c2.61,-1.66 -3.13,-1.57 2.79,-1.15 3.01,0.21 1.23,0.12 2.8,1.15zm-27.97 -1.4c8.63,0.2 3.04,0.17 9.26,3.33l33.69 19.46c10.19,7.52 6.25,2.86 16.41,12.96 5.14,5.11 3.59,2.4 4.97,6.21 -5.26,-1.23 -4.79,-1.19 -8.85,-3.73 -0.36,-0.22 -1.36,-0.87 -1.72,-1.08l-52.95 -36.56c-0.16,-0.12 -0.56,-0.37 -0.81,-0.59zm-76.92 -4.19l0.41 0.41c-0.02,-0.02 -0.55,-0.27 -0.41,-0.41zm549.64 -13.99l0.42 0.42c-0.03,-0.03 -0.56,-0.28 -0.42,-0.42zm-5.59 -4.19l4.19 0 0 2.79c-4.09,-0.98 -2.01,0.18 -4.19,-2.79zm-7 -4.2c7.19,0.16 4.02,-1.27 7,2.8 -7.19,-0.16 -4.02,1.26 -7,-2.8zm209.79 -4.2c6.79,4.55 11.54,4.43 13.99,11.19 -6.92,-0.15 -13.13,-4.51 -13.99,-11.19zm25.18 -131.46c1.48,-1.49 5.3,2.22 1.55,0.72 -0.03,-0.01 -3.9,1.62 -1.55,-0.72zm-545.45 -16.79c0.78,0 2.28,-0.02 2.7,0.1 2.53,0.73 1.5,0.38 2.89,1.3 -0.78,0 -2.28,0.03 -2.7,-0.09 -2.48,-0.71 -1.55,-0.46 -2.89,-1.31zm-8.39 -4.19c1.48,-1.49 5.3,2.22 1.55,0.73 -0.03,-0.02 -3.9,1.61 -1.55,-0.73zm-8.4 -4.2l0.42 0.42c-0.03,-0.03 -0.55,-0.28 -0.42,-0.42zm-293.7 -18.18c1.84,1.23 8.22,4.68 5.98,6.92 -2.35,2.34 -0.44,-0.75 -7.38,-1.32 0.98,-1.98 1.4,-2.33 1.4,-5.6zm453.14 -83.91c5.02,0.41 33.37,12.69 36.37,20.97 -10.29,0 -14.8,-4.48 -24.75,-10.21l-1.73 -1.07c-8.75,-5.06 -9.64,-0.67 -9.89,-9.69zm-72.72 -33.57l0.41 0.42c-0.02,-0.03 -0.55,-0.28 -0.41,-0.42zm-9.79 -4.2c0.66,-0.66 7.92,0.77 2.52,0.76 -2.56,-0.01 -4.55,1.28 -2.52,-0.76z"/>
   <path class="fil1" d="M131.47 730.91c1.23,4.6 0.27,1.99 3.51,4.88l16.69 12.68c6.07,4.23 17.92,12.81 28.75,7.62 -1.87,-7 -10.37,-15.01 -21.63,-14.52 -6.46,0.27 -2.07,1.31 -12.9,-5.5 -0.58,-0.36 -1.62,-1.08 -2.55,-1.64 -0.26,-0.16 -0.61,-0.38 -0.87,-0.53l-2.72 -1.47c-4.22,-1.86 -1.92,-1.52 -8.28,-1.52z"/>
   <path class="fil1" d="M131.47 730.91l0 -4.19c-4.11,-0.09 -4.67,-0.56 -7.1,-2.69l-47.63 -30.7c-4.61,-3.66 -13.27,-9.83 -19.4,-9.97 0.97,3.62 2.81,6.13 5.22,8.77 1.3,1.42 2.13,2.1 3.58,3.41l65.33 35.37z"/>
   <path class="fil2" d="M183.21 758.89c0,3.01 1.98,5.76 3.96,7.23 2.67,1.97 0.73,0.34 3.7,1.9 6.35,3.33 0.23,2.73 9.13,0.66 -2.25,-4.7 0.15,-4.98 -7.93,-10.26 -3.45,-2.25 0.01,-2.33 -4.66,-2.33 -2.29,0 -4.2,0.84 -4.2,2.8z"/>
   <path class="fil3" d="M642.09 663.08c-1.36,0.94 -0.45,0.82 -3.06,1.52l-7.53 1.23c-0.21,4.57 -1.73,1.89 2.89,3.9 -0.55,1.79 -1.23,3.43 -1.52,4.41 -0.14,0.45 -0.26,0.95 -0.37,1.32 -0.11,0.36 -0.22,1.46 -0.29,1.28 -0.07,-0.17 -0.17,0.85 -0.23,1.27 1.86,1.16 1.15,-2.31 1.61,3.75 0.53,7.06 0.41,3.17 -5.56,10.77 7.76,0.59 11.42,-1.86 9.48,-8.88 -2.96,-10.72 3.26,-1.63 -3.49,-16.81l17.76 -1.29c6.54,-2.26 2.94,-0.61 4.64,-3.92l-14.33 1.45z"/>
   <path class="fil4" d="M628.93 674.47c0.09,2.07 -0.78,1.71 0.7,4.27 2.57,4.43 1.05,1.38 3.96,3.02 -0.46,-6.06 0.25,-2.59 -1.61,-3.75 0.06,-0.42 0.16,-1.44 0.23,-1.27 0.07,0.18 0.18,-0.92 0.29,-1.28 0.11,-0.37 0.23,-0.87 0.37,-1.32 0.29,-0.98 0.97,-2.62 1.52,-4.41 -4.62,-2.01 -3.1,0.67 -2.89,-3.9l7.53 -1.23c2.61,-0.7 1.7,-0.58 3.06,-1.52l-15.56 -1.06c2.86,4.55 1.86,6.77 0.3,10.24l2.1 2.21z"/>
   <polygon class="fil2" points="120.28,714.13 121.05,717.14 "/>
   <path class="fil5" d="M194.49 832.53c0,2.54 -0.62,4.9 -1.84,7.08 -1.22,2.18 -3.08,3.92 -5.57,5.25 -2.5,1.32 -5.56,1.98 -9.18,1.98 -3.52,0 -6.67,-0.63 -9.46,-1.88 -2.79,-1.24 -5.01,-2.99 -6.68,-5.24 -1.66,-2.25 -2.61,-4.84 -2.86,-7.78l8.95 0c0.25,2.25 1.21,4.19 2.9,5.8 1.69,1.61 3.95,2.42 6.79,2.42 2.54,0 4.51,-0.68 5.9,-2.05 1.4,-1.37 2.09,-3.13 2.09,-5.29 0,-1.85 -0.51,-3.38 -1.54,-4.58 -1.02,-1.2 -2.3,-2.14 -3.81,-2.83 -1.52,-0.68 -3.6,-1.46 -6.24,-2.34 -3.23,-1.03 -5.85,-2.06 -7.88,-3.08 -2.03,-1.03 -3.76,-2.52 -5.18,-4.48 -1.41,-1.96 -2.12,-4.52 -2.12,-7.7 0,-2.79 0.68,-5.24 2.05,-7.34 1.37,-2.1 3.33,-3.73 5.87,-4.88 2.54,-1.15 5.48,-1.72 8.8,-1.72 5.29,0 9.48,1.27 12.59,3.81 3.1,2.55 4.87,5.87 5.31,9.98l-9.02 0c-0.34,-1.96 -1.26,-3.63 -2.75,-5.02 -1.49,-1.4 -3.53,-2.1 -6.13,-2.1 -2.34,0 -4.23,0.6 -5.65,1.8 -1.41,1.2 -2.12,2.92 -2.12,5.17 0,1.76 0.49,3.22 1.46,4.37 0.98,1.15 2.22,2.05 3.71,2.71 1.49,0.66 3.53,1.43 6.13,2.31 3.27,1.03 5.95,2.07 8.03,3.12 2.08,1.05 3.84,2.58 5.28,4.59 1.44,2 2.17,4.64 2.17,7.92zm41 -38.66c4.8,0 9.14,1.12 13.02,3.37 3.89,2.25 6.95,5.4 9.18,9.43 2.22,4.03 3.33,8.6 3.33,13.68 0,5.09 -1.11,9.65 -3.33,13.68 -2.23,4.04 -5.29,7.19 -9.18,9.47 -3.88,2.27 -8.22,3.41 -13.02,3.41 -4.84,0 -9.2,-1.14 -13.09,-3.41 -3.89,-2.28 -6.96,-5.43 -9.21,-9.47 -2.25,-4.03 -3.37,-8.59 -3.37,-13.68 0,-5.08 1.12,-9.65 3.37,-13.68 2.25,-4.03 5.32,-7.18 9.21,-9.43 3.89,-2.25 8.25,-3.37 13.09,-3.37zm0 7.77c-3.32,0 -6.28,0.76 -8.87,2.28 -2.6,1.52 -4.61,3.69 -6.06,6.53 -1.44,2.84 -2.16,6.14 -2.16,9.9 0,3.77 0.72,7.07 2.16,9.91 1.45,2.83 3.46,5.01 6.06,6.52 2.59,1.52 5.55,2.28 8.87,2.28 3.28,0 6.2,-0.76 8.77,-2.28 2.57,-1.51 4.57,-3.69 6.02,-6.52 1.44,-2.84 2.16,-6.14 2.16,-9.91 0,-3.76 -0.72,-7.06 -2.16,-9.9 -1.45,-2.84 -3.45,-5.01 -6.02,-6.53 -2.57,-1.52 -5.49,-2.28 -8.77,-2.28zm50.99 38.15l17.9 0 0 6.53 -26.27 0 0 -51.79 8.37 0 0 45.26zm41.08 -45.26l0 30.74c0,4.59 1.02,8.02 3.04,10.27 2.04,2.25 4.88,3.37 8.55,3.37 3.62,0 6.45,-1.12 8.48,-3.37 2.03,-2.25 3.04,-5.68 3.04,-10.27l0 -30.74 8.36 0 0 30.74c0,7.09 -1.83,12.46 -5.5,16.1 -3.67,3.64 -8.51,5.47 -14.52,5.47 -5.97,0 -10.76,-1.83 -14.38,-5.47 -3.62,-3.64 -5.43,-9.01 -5.43,-16.1l0 -30.74 8.36 0zm73 -0.52c6.35,0 11.64,1.62 15.84,4.85 4.21,3.23 7.05,7.6 8.51,13.13l-8.87 0c-1.23,-3.13 -3.17,-5.61 -5.84,-7.45 -2.66,-1.83 -5.93,-2.75 -9.79,-2.75 -3.08,0 -5.83,0.76 -8.25,2.28 -2.43,1.51 -4.33,3.68 -5.73,6.49 -1.39,2.81 -2.09,6.1 -2.09,9.87 0,3.71 0.7,6.98 2.09,9.79 1.4,2.81 3.3,4.98 5.73,6.49 2.42,1.52 5.17,2.28 8.25,2.28 3.86,0 7.13,-0.92 9.79,-2.76 2.67,-1.83 4.61,-4.29 5.84,-7.37l8.87 0c-1.46,5.53 -4.3,9.89 -8.51,13.1 -4.2,3.2 -9.49,4.8 -15.84,4.8 -4.9,0 -9.22,-1.11 -12.99,-3.33 -3.77,-2.23 -6.68,-5.34 -8.73,-9.32 -2.05,-3.99 -3.08,-8.55 -3.08,-13.68 0,-5.14 1.03,-9.7 3.08,-13.69 2.05,-3.98 4.96,-7.1 8.73,-9.35 3.77,-2.25 8.09,-3.38 12.99,-3.38zm2.49 56.71c2.69,-0.09 4.93,0.46 6.71,1.66 1.79,1.19 2.68,3.06 2.68,5.61 0,2.49 -0.87,4.37 -2.6,5.65 -1.74,1.27 -3.95,1.9 -6.64,1.9l-8.44 0 0 -4.69 7.48 0c2.94,0 4.4,-1.03 4.4,-3.08 0,-0.88 -0.35,-1.59 -1.06,-2.13 -0.71,-0.54 -1.82,-0.81 -3.34,-0.81l-4.33 0 0 -9.02 5.14 0 0 4.91zm62.87 -56.85c4.8,0 9.14,1.12 13.02,3.37 3.89,2.25 6.95,5.4 9.17,9.43 2.23,4.03 3.34,8.6 3.34,13.68 0,5.09 -1.11,9.65 -3.34,13.68 -2.22,4.04 -5.28,7.19 -9.17,9.47 -3.88,2.27 -8.22,3.41 -13.02,3.41 -4.84,0 -9.21,-1.14 -13.09,-3.41 -3.89,-2.28 -6.96,-5.43 -9.21,-9.47 -2.25,-4.03 -3.37,-8.59 -3.37,-13.68 0,-5.08 1.12,-9.65 3.37,-13.68 2.25,-4.03 5.32,-7.18 9.21,-9.43 3.88,-2.25 8.25,-3.37 13.09,-3.37zm0 7.77c-3.32,0 -6.28,0.76 -8.88,2.28 -2.59,1.52 -4.6,3.69 -6.05,6.53 -1.44,2.84 -2.16,6.14 -2.16,9.9 0,3.77 0.72,7.07 2.16,9.91 1.45,2.83 3.46,5.01 6.05,6.52 2.6,1.52 5.56,2.28 8.88,2.28 3.28,0 6.2,-0.76 8.77,-2.28 2.57,-1.51 4.57,-3.69 6.01,-6.52 1.45,-2.84 2.17,-6.14 2.17,-9.91 0,-3.76 -0.72,-7.06 -2.17,-9.9 -1.44,-2.84 -3.44,-5.01 -6.01,-6.53 -2.57,-1.52 -5.49,-2.28 -8.77,-2.28zm-4.55 -19.88c0.98,0 1.83,0.16 2.53,0.48 0.71,0.32 1.61,0.79 2.68,1.43 0.74,0.54 1.41,0.94 2.02,1.21 0.61,0.27 1.26,0.4 1.94,0.4 0.83,0 1.53,-0.29 2.1,-0.88 0.56,-0.58 0.94,-1.44 1.13,-2.56l4.4 0c-0.39,2.83 -1.28,4.96 -2.67,6.38 -1.4,1.42 -3.15,2.13 -5.25,2.13 -1.03,0 -1.94,-0.17 -2.75,-0.52 -0.81,-0.34 -1.7,-0.83 -2.68,-1.46 -0.93,-0.54 -1.62,-0.92 -2.09,-1.14 -0.46,-0.22 -1.01,-0.33 -1.65,-0.33 -1.81,0 -2.86,1.15 -3.15,3.45l-4.48 0c0.93,-5.73 3.57,-8.59 7.92,-8.59zm55.54 19.52l0 15.7 19.07 0 0 6.45 -19.07 0 0 16.07 21.27 0 0 6.82 -29.64 0 0 -51.79 29.64 0 0 6.75 -21.27 0zm72.11 31.25c0,2.54 -0.61,4.9 -1.83,7.08 -1.22,2.18 -3.08,3.92 -5.58,5.25 -2.49,1.32 -5.55,1.98 -9.17,1.98 -3.52,0 -6.67,-0.63 -9.46,-1.88 -2.79,-1.24 -5.01,-2.99 -6.68,-5.24 -1.66,-2.25 -2.61,-4.84 -2.86,-7.78l8.95 0c0.25,2.25 1.21,4.19 2.9,5.8 1.69,1.61 3.95,2.42 6.78,2.42 2.55,0 4.52,-0.68 5.91,-2.05 1.39,-1.37 2.09,-3.13 2.09,-5.29 0,-1.85 -0.51,-3.38 -1.54,-4.58 -1.03,-1.2 -2.3,-2.14 -3.81,-2.83 -1.52,-0.68 -3.6,-1.46 -6.24,-2.34 -3.23,-1.03 -5.86,-2.06 -7.89,-3.08 -2.03,-1.03 -3.75,-2.52 -5.17,-4.48 -1.42,-1.96 -2.13,-4.52 -2.13,-7.7 0,-2.79 0.69,-5.24 2.06,-7.34 1.37,-2.1 3.32,-3.73 5.87,-4.88 2.54,-1.15 5.48,-1.72 8.8,-1.72 5.28,0 9.48,1.27 12.58,3.81 3.11,2.55 4.88,5.87 5.32,9.98l-9.02 0c-0.34,-1.96 -1.26,-3.63 -2.75,-5.02 -1.5,-1.4 -3.54,-2.1 -6.13,-2.1 -2.35,0 -4.23,0.6 -5.65,1.8 -1.42,1.2 -2.13,2.92 -2.13,5.17 0,1.76 0.49,3.22 1.47,4.37 0.98,1.15 2.21,2.05 3.71,2.71 1.49,0.66 3.53,1.43 6.12,2.31 3.28,1.03 5.96,2.07 8.04,3.12 2.07,1.05 3.84,2.58 5.28,4.59 1.44,2 2.16,4.64 2.16,7.92zm64.78 -38l0 6.75 -22.23 0 0 16.06 18.34 0 0 6.46 -18.34 0 0 22.52 -8.36 0 0 -51.79 30.59 0zm24.5 0l0 51.79 -8.36 0 0 -51.79 8.36 0zm60.67 51.79l-8.36 0 -25.16 -38.22 0 38.22 -8.37 0 0 -51.72 8.37 0 25.16 38.37 0 -38.37 8.36 0 0 51.72zm49.67 -11.22l-21.86 0 -3.96 11.22 -8.95 0 19.07 -50.98 9.61 0 19 50.98 -8.95 0 -3.96 -11.22zm-2.35 -6.46l-8.58 -24.21 -8.59 24.21 17.17 0zm72.04 17.68l-8.36 0 -25.16 -38.22 0 38.22 -8.37 0 0 -51.72 8.37 0 25.16 38.37 0 -38.37 8.36 0 0 51.72zm41.89 -52.31c6.36,0 11.64,1.62 15.85,4.85 4.2,3.23 7.04,7.6 8.51,13.13l-8.88 0c-1.22,-3.13 -3.17,-5.61 -5.83,-7.45 -2.67,-1.83 -5.93,-2.75 -9.8,-2.75 -3.08,0 -5.83,0.76 -8.25,2.28 -2.42,1.51 -4.33,3.68 -5.72,6.49 -1.39,2.81 -2.09,6.1 -2.09,9.87 0,3.71 0.7,6.98 2.09,9.79 1.39,2.81 3.3,4.98 5.72,6.49 2.42,1.52 5.17,2.28 8.25,2.28 3.87,0 7.13,-0.92 9.8,-2.76 2.66,-1.83 4.61,-4.29 5.83,-7.37l8.88 0c-1.47,5.53 -4.31,9.89 -8.51,13.1 -4.21,3.2 -9.49,4.8 -15.85,4.8 -4.89,0 -9.22,-1.11 -12.98,-3.33 -3.77,-2.23 -6.68,-5.34 -8.73,-9.32 -2.06,-3.99 -3.08,-8.55 -3.08,-13.68 0,-5.14 1.02,-9.7 3.08,-13.69 2.05,-3.98 4.96,-7.1 8.73,-9.35 3.76,-2.25 8.09,-3.38 12.98,-3.38zm49.74 7.27l0 15.7 19.08 0 0 6.45 -19.08 0 0 16.07 21.28 0 0 6.82 -29.64 0 0 -51.79 29.64 0 0 6.75 -21.28 0zm46.44 -6.75l0 51.79 -8.36 0 0 -51.79 8.36 0zm46 51.79l-12.91 -20.69 -5.95 0 0 20.69 -8.36 0 0 -51.79 18.27 0c5.92,0 10.4,1.44 13.46,4.33 3.06,2.88 4.58,6.7 4.58,11.44 0,4.06 -1.13,7.39 -3.41,9.98 -2.27,2.59 -5.56,4.25 -9.86,4.99l13.57 21.05 -9.39 0zm-18.86 -26.63l9.25 0c6.75,0 10.12,-2.98 10.12,-8.95 0,-2.84 -0.82,-5.05 -2.46,-6.64 -1.64,-1.59 -4.19,-2.38 -7.66,-2.38l-9.25 0 0 17.97zm75.05 15.41l-21.86 0 -3.96 11.22 -8.95 0 19.07 -50.98 9.61 0 19 50.98 -8.95 0 -3.96 -11.22zm-2.35 -6.46l-8.58 -24.21 -8.58 24.21 17.16 0zm64.2 3.89c0,2.54 -0.62,4.9 -1.84,7.08 -1.22,2.18 -3.08,3.92 -5.57,5.25 -2.5,1.32 -5.56,1.98 -9.17,1.98 -3.52,0 -6.68,-0.63 -9.47,-1.88 -2.78,-1.24 -5.01,-2.99 -6.67,-5.24 -1.67,-2.25 -2.62,-4.84 -2.86,-7.78l8.95 0c0.24,2.25 1.21,4.19 2.89,5.8 1.69,1.61 3.95,2.42 6.79,2.42 2.54,0 4.51,-0.68 5.91,-2.05 1.39,-1.37 2.09,-3.13 2.09,-5.29 0,-1.85 -0.52,-3.38 -1.54,-4.58 -1.03,-1.2 -2.3,-2.14 -3.82,-2.83 -1.52,-0.68 -3.59,-1.46 -6.24,-2.34 -3.22,-1.03 -5.85,-2.06 -7.88,-3.08 -2.03,-1.03 -3.75,-2.52 -5.17,-4.48 -1.42,-1.96 -2.13,-4.52 -2.13,-7.7 0,-2.79 0.68,-5.24 2.05,-7.34 1.37,-2.1 3.33,-3.73 5.87,-4.88 2.54,-1.15 5.48,-1.72 8.81,-1.72 5.28,0 9.47,1.27 12.58,3.81 3.1,2.55 4.88,5.87 5.32,9.98l-9.03 0c-0.34,-1.96 -1.26,-3.63 -2.75,-5.02 -1.49,-1.4 -3.53,-2.1 -6.12,-2.1 -2.35,0 -4.24,0.6 -5.65,1.8 -1.42,1.2 -2.13,2.92 -2.13,5.17 0,1.76 0.49,3.22 1.47,4.37 0.97,1.15 2.21,2.05 3.7,2.71 1.49,0.66 3.53,1.43 6.13,2.31 3.27,1.03 5.95,2.07 8.03,3.12 2.08,1.05 3.84,2.58 5.28,4.59 1.45,2 2.17,4.64 2.17,7.92z"/>
   <path class="fil5" d="M561.33 272.31l8.42 0 6.27 4.2 14.69 -2.1c24.25,0 46.6,13.98 67.06,41.93l10.49 20.96 -2.07 2.11 2.07 10.48 0 10.49c0,35.91 -29.35,63.19 -88.03,81.75l-20.97 2.11c0,-3.54 -2.82,-5.65 -8.42,-6.28l0 8.38 -6.27 0 0 -12.59 -2.11 -2.1 2.11 -2.11 0 -2.06c-8.38,-5.77 -12.59,-10.65 -12.59,-14.69 4.21,-63.32 11.2,-109.46 20.97,-138.38l2.1 0 2.11 2.1 4.17 -4.2zm-8.38 20.96l-10.49 60.79 0 2.11 2.11 0 10.48 -58.69 0 -4.21 -2.1 0zm33.55 14.69c0,2.78 -2.78,4.17 -8.38,4.17 -5.6,25.51 -9.81,54.85 -12.59,88.07 8.13,0 29.1,-6.99 62.9,-20.96l0 -2.11 -4.21 0c11.2,-11.41 16.8,-23.32 16.8,-35.61l0 -6.32c0,-15.37 -10.48,-24.46 -31.45,-27.24l-23.07 0zm41.93 0l0 2.07 8.38 4.2 0 -2.1 -6.27 -4.17 -2.11 0zm18.86 29.34l-2.06 25.18 4.17 0 0 -6.31 2.1 -8.38 -2.1 -10.49 -2.11 0zm14.69 16.76l-10.48 33.55 0 2.11 2.11 0 10.48 -31.45 0 -4.21 -2.11 0zm-20.96 14.69l-4.21 8.38 2.1 0 4.21 -8.38 -2.1 0zm-12.59 37.77c3.28,-0.51 8.17,-4.72 14.69,-12.59l0 -2.11 -14.69 14.7zm-48.2 12.54l0 2.11 8.38 0 10.48 -4.17 0 -2.11 -2.11 0 -16.75 4.17zm-16.8 2.11l2.1 6.31 4.22 0 4.16 -4.21 0 -2.1 -2.1 0 -6.28 2.1 -2.1 -2.1zm-23.07 12.58l2.1 0 0 2.11 -4.16 4.17 -2.11 0 0 -2.07 4.17 -4.21zm175.3 -161.95l25.13 0c29.39,5.52 44.04,18.1 44.04,37.76l0 12.59 -20.97 29.34 2.11 0 20.96 -18.86 0 4.17c-7.15,15.96 -16.25,26.44 -27.24,31.45l-12.58 4.21 0 8.38c3.03,0 17.72,18.18 44.03,54.51 5.56,2.32 11.16,7.92 16.76,16.76l0 2.1 -10.49 -8.38 0 2.11c6.99,7.41 10.49,12.97 10.49,16.76l-2.11 0 -10.48 6.31 -2.11 0 -4.16 -6.31 -2.11 2.1 -2.1 0c-27.96,-22.86 -47.53,-45.93 -58.69,-69.17l-10.48 -21c-4.97,0 -7.75,8.42 -8.42,25.17 0.92,13.98 0.21,22.48 -2.06,25.55 -4.13,3.37 -4.85,6.74 -2.11,10.11l0 4.17 -6.31 0c-2.78,0 -4.17,-2.78 -4.17,-8.38l-2.11 0c0,5.6 -2.65,7.7 -7.91,6.31l-9.22 -12.33 2.44 -19.11 0 -8.42 12.59 -58.69 2.1 0 0 8.38 2.11 0 10.48 -44.04c-2.82,0 -4.21,2.82 -4.21,8.38l-2.1 0 0 -4.17 -12.55 0 0 -2.1c0,-2.78 4.17,-4.89 12.55,-6.27l0 -2.11 -4.17 0 -12.59 4.17 -2.1 0c0,-2.78 2.82,-4.17 8.37,-4.17l0 -2.11c-5.55,0 -8.37,-2.1 -8.37,-6.27l37.76 -18.9zm2.06 75.48l2.11 0c21.97,-10.52 37.34,-21.68 46.14,-33.55l0 -4.17c0,-4.8 -8.38,-9.68 -25.18,-14.69l-12.59 4.21 -10.48 48.2zm41.97 -52.41c2.78,6.36 5.56,9.85 8.38,10.48l0 -4.16 -8.38 -6.32zm12.55 12.59l-2.06 10.48 2.06 0 2.1 -2.1 0 -8.38 -2.1 0zm-77.55 6.27l2.07 0 0 6.31 -2.07 8.38 -2.1 0 0 -6.27 2.1 -8.42zm71.28 8.42l-10.49 14.65 2.11 0 10.48 -12.59 0 -2.06 -2.1 0zm20.96 4.17l4.21 0 -2.1 6.31 -2.11 0 0 -6.31zm-96.45 6.31l2.11 0 0 8.38 -2.11 0 0 -8.38zm-4.21 27.24l0 8.38 2.11 0 0 -8.38 -2.11 0zm62.9 62.9l0 2.1 8.42 8.38c-2.74,-6.32 -5.52,-9.81 -8.42,-10.48zm10.52 14.69l0 2.1 8.38 6.27 0 -2.1 -8.38 -6.27zm-310.16 60.62l2.11 0c20.29,0 35.7,8.38 46.14,25.18l0 2.06 -4.21 0 2.1 2.11 0 2.1c-8.37,-0.97 -12.58,-2.4 -12.58,-4.21 -32.63,0 -57.09,16.8 -73.38,50.35l-4.21 14.65 6.31 39.87 6.28 0c17.42,0 37,-12.59 58.72,-37.76l2.07 0 0 2.1c-14.86,21.47 -31.66,34.06 -50.31,37.76l0 2.07 2.1 0c14.61,0 32.8,-12.59 54.52,-37.72l6.27 8.37 0 6.28c0,4.54 -10.48,15.03 -31.44,31.49l-2.11 2.06 -2.06 0 0 4.21c23.74,-11.58 35.61,-20 35.61,-25.18l4.21 0 0 2.11c-17.59,20.96 -37.89,31.45 -60.83,31.45l0 2.1 10.48 0 8.42 -2.1 2.11 0 0 2.1 -25.18 4.09c-10.61,0 -21.8,-7.67 -33.55,-22.95l0 2.11 10.48 16.75 0 1.98 -6.27 0c-13.01,-8.88 -20.71,-20.04 -23.07,-33.43l-2.1 -27.28c0,-35.02 6.98,-57.38 20.96,-67.06l0 2.06 -12.59 21.01 0 2.06 2.11 0c0,-13.3 17.47,-32.16 52.41,-56.58l-6.27 2.07 -2.11 0 0 -2.07 18.86 -4.21zm-23.07 8.38l2.11 0 0 2.11 -14.69 6.27c0,-2.78 4.21,-5.56 12.58,-8.38zm-18.86 14.69l0 2.11 -10.48 10.48 0 -2.1 10.48 -10.49zm-25.17 100.62l0 6.31 2.1 8.38 2.11 0 0 -2.1 -2.11 -12.59 -2.1 0zm162.58 -127.64l25.14 0c29.38,5.51 44.03,18.1 44.03,37.76l0 12.59 -20.96 29.34 2.1 0 20.97 -18.86 0 4.17c-7.16,15.95 -16.25,26.43 -27.24,31.44l-12.59 4.21 0 8.38c3.03,0 17.72,18.19 44.04,54.52 5.55,2.31 11.15,7.91 16.75,16.75l0 2.11 -10.48 -8.38 0 2.11c6.99,7.41 10.48,12.96 10.48,16.75l-2.1 0 -10.49 6.32 -2.1 0 -4.17 -6.32 -2.1 2.11 -2.11 0c-27.95,-22.86 -47.53,-45.93 -58.69,-69.17l-10.48 -21.01c-4.97,0 -7.74,8.42 -8.42,25.18 0.93,13.97 0.21,22.48 -2.06,25.55 -4.13,3.37 -4.84,6.74 -2.11,10.1l0 4.17 -6.31 0c-2.78,0 -4.17,-2.78 -4.17,-8.38l-2.1 0c0,5.6 -2.65,7.71 -7.92,6.32l-9.22 -12.34 2.45 -19.11 0 -8.42 12.58 -58.68 2.11 0 0 8.37 2.1 0 10.48 -44.03c-2.82,0 -4.2,2.82 -4.2,8.38l-2.11 0 0 -4.17 -12.54 0 0 -2.11c0,-2.78 4.16,-4.88 12.54,-6.27l0 -2.1 -4.17 0 -12.59 4.16 -2.1 0c0,-2.77 2.82,-4.16 8.38,-4.16l0 -2.11c-5.56,0 -8.38,-2.1 -8.38,-6.27l37.76 -18.9zm2.07 75.48l2.1 0c21.98,-10.53 37.34,-21.68 46.14,-33.55l0 -4.17c0,-4.8 -8.38,-9.68 -25.17,-14.69l-12.59 4.21 -10.48 48.2zm41.97 -52.41c2.78,6.35 5.55,9.85 8.38,10.48l0 -4.17 -8.38 -6.31zm12.54 12.58l-2.06 10.49 2.06 0 2.11 -2.11 0 -8.38 -2.11 0zm-77.54 6.28l2.06 0 0 6.31 -2.06 8.38 -2.11 0 0 -6.27 2.11 -8.42zm71.27 8.42l-10.48 14.65 2.1 0 10.49 -12.59 0 -2.06 -2.11 0zm20.97 4.16l4.21 0 -2.11 6.32 -2.1 0 0 -6.32zm-96.45 6.32l2.1 0 0 8.38 -2.1 0 0 -8.38zm-4.21 27.24l0 8.37 2.1 0 0 -8.37 -2.1 0zm62.89 62.89l0 2.11 8.42 8.37c-2.73,-6.31 -5.51,-9.81 -8.42,-10.48zm10.53 14.69l0 2.11 8.38 6.27 0 -2.1 -8.38 -6.28zm152.82 -164.52l10.1 7.03c-2.95,12.42 -8.29,18.36 -16.04,17.85l-54.77 2.49 -0.21 4.21 10.36 0.71 12.67 -1.22 1.98 2.36 2.1 0.13 14.82 -1.27 4.17 0.38 -0.13 2.11 -48.71 5.05 -3.83 27.11 2.11 0.13 57 -4.55 1.85 2.23 -0.13 2.06 -4.2 -0.33 0 2.1 14.43 3.2 -0.12 2.11c-3.03,7.78 -23.11,14.1 -60.2,18.98l-21.09 0.72 1.97 2.1 -10.1 26.65 -2.1 0 1.22 -18.86 -2.07 -0.12 -4.08 29.08c41.85,-5.59 71.4,-7.78 88.66,-6.65l10.23 2.82 -0.08 4.21 -4.21 -0.25 1.85 2.23 -0.38 6.28c-4.04,5.26 -12.59,7.49 -25.64,6.65l-0.13 2.1 16.76 1.14 -0.38 4.17 -97.54 14.31 -2.11 -0.13c-6.73,-1.47 -10.1,-3.66 -10.1,-6.52l0 -0.38 0.38 -6.27 5.81 -22.69 -1.98 -2.24 4.17 0.13 -0.72 10.48 2.06 0.26c0.85,-6.99 2.49,-10.36 4.97,-10.15l-1.98 -2.31 1.48 -20.84 -4.21 -0.38 -2.82 10.35 2.36 -1.97 2.06 0.12 -0.84 12.59 -2.11 -0.25 0.38 -6.19 -2.1 -0.09 -0.26 4.17 -2.1 -0.13 0.25 -4.16 6.65 -35.41 -2.06 -0.12 4.8 -10.11 -1.98 -2.23 0.12 -2.11 4.55 -35.4 1.98 2.23 2.11 0.13 0.25 -4.21 -1.35 -10.61 3.33 -18.73 0.38 -6.28 2.06 0.21 1.98 2.23 2.23 -1.97 2.1 0.25 1.98 2.1 2.19 -1.98 6.32 0.51 73.63 -1.35zm-104.96 91.61l-1.01 14.69 2.11 0.13 1.01 -14.57 -2.11 -0.25zm69.17 2.74l2.11 0 -0.26 2.1 -37.97 3.79 -1.98 -2.32 0.13 -1.97 18.99 -0.89 -0.13 2.11 19.11 -2.82zm77.46 -94.98l8.42 0 6.28 4.21 14.69 -2.1c24.25,0 46.6,13.97 67.06,41.93l10.48 20.96 -2.06 2.11 2.06 10.48 0 10.48c0,35.91 -29.34,63.19 -88.02,81.76l-20.97 2.1c0,-3.53 -2.82,-5.64 -8.42,-6.27l0 8.38 -6.27 0 0 -12.59 -2.11 -2.11 2.11 -2.1 0 -2.06c-8.38,-5.77 -12.59,-10.65 -12.59,-14.69 4.21,-63.32 11.2,-109.46 20.97,-138.38l2.1 0 2.11 2.1 4.16 -4.21zm-8.37 20.97l-10.49 60.79 0 2.1 2.11 0 10.48 -58.68 0 -4.21 -2.1 0zm33.55 14.69c0,2.78 -2.78,4.17 -8.38,4.17 -5.6,25.51 -9.81,54.85 -12.59,88.07 8.13,0 29.09,-6.99 62.9,-20.97l0 -2.1 -4.21 0c11.2,-11.41 16.8,-23.32 16.8,-35.62l0 -6.31c0,-15.37 -10.48,-24.46 -31.45,-27.24l-23.07 0zm41.93 0l0 2.06 8.38 4.21 0 -2.1 -6.27 -4.17 -2.11 0zm18.86 29.34l-2.06 25.18 4.16 0 0 -6.32 2.11 -8.38 -2.11 -10.48 -2.1 0zm14.69 16.76l-10.48 33.55 0 2.11 2.11 0 10.48 -31.45 0 -4.21 -2.11 0zm-20.96 14.69l-4.21 8.38 2.1 0 4.21 -8.38 -2.1 0zm-12.59 37.76c3.28,-0.5 8.17,-4.71 14.69,-12.59l0 -2.1 -14.69 14.69zm-48.2 12.55l0 2.1 8.37 0 10.49 -4.17 0 -2.1 -2.11 0 -16.75 4.17zm-16.8 2.1l2.1 6.32 4.21 0 4.17 -4.21 0 -2.11 -2.1 0 -6.28 2.11 -2.1 -2.11zm-23.07 12.59l2.1 0 0 2.1 -4.16 4.17 -2.11 0 0 -2.06 4.17 -4.21zm178.24 -160.1c-0.33,4.21 2.32,6.31 7.88,6.31l3.83 8.38 -2.19 2.11 2.06 0c-10.02,29.59 -16.12,63.82 -18.35,102.72l-0.76 12.58 2.1 2.11 -0.12 2.1 -2.23 2.07 2.1 0 -2.23 2.1 1.26 14.69 -0.25 4.17c-7.49,9.05 -11.41,16.04 -11.7,20.97l-8.42 0 -10.11 -4.17 2.95 -14.69 -8 -8.38 3.83 -31.45 2.11 -37.76 4.54 -6.27 0.51 -8.38 -1.98 -2.11 0.13 -2.1 4.17 0 0.12 -2.11 -1.98 -2.06 8.55 -39.87 -2.11 0 2.23 -2.1 0.59 -12.55 -1.98 -2.1 0.13 -2.11 23.32 -2.1zm-23.19 37.76l-0.72 14.65 2.07 0 0.75 -14.65 -2.1 0zm-3.2 20.97l-0.76 12.58 2.11 0 0.75 -12.58 -2.1 0zm-3.2 18.86l-0.63 12.58 2.1 0 0.63 -12.58 -2.1 0zm-0.38 83.86l-0.63 10.48 4.34 -4.17 0.5 -6.31 -4.21 0z"/>
  </g>
 </g>
</svg>
