<?xml version="1.0" encoding="UTF-8"?>
<!DOCTYPE svg PUBLIC "-//W3C//DTD SVG 1.1//EN" "http://www.w3.org/Graphics/SVG/1.1/DTD/svg11.dtd">
<!-- Creator: CorelDRAW 2018 (64 Bit Versão de avaliação) -->
<svg xmlns="http://www.w3.org/2000/svg" xml:space="preserve" width="200px" height="200px" version="1.1" style="shape-rendering:geometricPrecision; text-rendering:geometricPrecision; image-rendering:optimizeQuality; fill-rule:evenodd; clip-rule:evenodd"
viewBox="0 0 845.66 845.66"
 xmlns:xlink="http://www.w3.org/1999/xlink">
 <defs>
  <style type="text/css">
   <![CDATA[
    .fil0 {fill:none}
    .fil1 {fill:#00F2A9;fill-rule:nonzero}
    .fil2 {fill:#0F4069;fill-rule:nonzero}
   ]]>
  </style>
 </defs>
 <g id="Camada_x0020_1">
  <metadata id="CorelCorpID_0Corel-Layer"/>
  <g id="_2590632814912">
   <rect class="fil0" width="845.66" height="845.66"/>
   <g>
    <path class="fil1" d="M422.59 279.48c105.56,0 191.13,85.57 191.13,191.13 0,105.56 -85.57,191.13 -191.13,191.13 -105.56,0 -191.13,-85.57 -191.13,-191.13 0,-105.56 85.57,-191.13 191.13,-191.13z"/>
    <path class="fil2" d="M147.84 117.02l23.89 23.89 0 14.33 -23.89 -23.89 0 -14.33zm609.23 293.86c-7.17,0 -11.95,4.78 -11.95,11.95 0,177.99 -144.54,322.53 -322.53,322.53 -7.17,0 -11.95,4.78 -11.95,11.95 0,7.16 4.78,11.94 11.95,11.94 191.13,0 346.42,-155.29 346.42,-346.42 0,-7.17 -4.77,-11.95 -11.94,-11.95zm-241.56 -98.1c4.66,-4.67 12.22,-4.67 16.89,0 4.66,4.66 4.66,12.22 0,16.89 -4.67,4.66 -12.23,4.66 -16.89,0 -4.67,-4.67 -4.67,-12.23 0,-16.89zm-202.73 203.2c4.66,-4.67 12.22,-4.67 16.89,0 4.66,4.66 4.66,12.23 0,16.89 -4.67,4.66 -12.23,4.66 -16.89,0 -4.67,-4.66 -4.67,-12.23 0,-16.89zm202.96 -0.23c4.67,-4.66 12.23,-4.66 16.89,0 4.67,4.67 4.67,12.23 0,16.9 -4.66,4.66 -12.22,4.66 -16.89,0 -4.67,-4.67 -4.67,-12.23 0,-16.9zm50.2 -104.87c6.6,0 11.94,5.35 11.94,11.95 0,6.6 -5.34,11.94 -11.94,11.94 -6.6,0 -11.95,-5.34 -11.95,-11.94 0,-6.6 5.35,-11.95 11.95,-11.95zm-286.7 0c6.6,0 11.94,5.35 11.94,11.95 0,6.6 -5.34,11.94 -11.94,11.94 -6.6,0 -11.95,-5.34 -11.95,-11.94 0,-6.6 5.35,-11.95 11.95,-11.95zm143.35 143.35c6.6,0 11.94,5.35 11.94,11.95 0,6.59 -5.34,11.94 -11.94,11.94 -6.6,0 -11.95,-5.35 -11.95,-11.94 0,-6.6 5.35,-11.95 11.95,-11.95zm0 -286.7c6.6,0 11.94,5.35 11.94,11.95 0,6.6 -5.34,11.94 -11.94,11.94 -6.6,0 -11.95,-5.34 -11.95,-11.94 0,-6.6 5.35,-11.95 11.95,-11.95zm-161.27 52.56c-5.97,-3.58 -13.14,-1.19 -16.72,4.78 -16.73,29.87 -25.09,63.31 -25.09,97.96 0,112.29 90.79,203.07 203.08,203.07 112.29,0 203.07,-90.78 203.07,-203.07 0,-112.29 -90.78,-203.08 -203.07,-203.08 -34.64,0 -68.09,8.36 -97.96,25.09 -5.97,3.58 -8.36,10.75 -4.78,16.72 3.59,5.97 10.76,8.36 16.73,4.78 26.28,-14.34 56.14,-22.7 87.2,-22.7 99.15,0 179.19,80.04 179.19,179.19 0,99.15 -80.04,179.18 -179.19,179.18 -99.15,0 -179.18,-80.03 -179.18,-179.18 0,-29.87 7.16,-60.92 22.69,-87.21 1.2,-4.77 0,-13.14 -5.97,-15.53zm346.43 -65.7l16.72 -16.72c41.81,46.59 69.29,106.32 71.67,173.21l-23.89 0c-2.39,-59.73 -26.28,-114.68 -64.5,-156.49zm-16.73 -16.72c-41.81,-38.23 -96.76,-62.12 -156.49,-64.51l0 -25.08c66.9,2.38 127.82,29.86 173.22,71.67l-16.73 17.92zm41.81 396.6c0,0 1.2,0 0,0 1.2,0 1.2,-1.2 0,0 54.95,-54.95 88.4,-129.02 88.4,-211.44 0,-82.43 -33.45,-156.49 -87.2,-210.25 0,0 0,0 0,-1.19 0,-1.2 0,0 -1.2,0 -53.75,-53.76 -127.82,-87.21 -210.24,-87.21 -59.73,0 -117.07,17.92 -167.24,51.37 -5.98,3.59 -7.17,10.75 -3.59,16.72 3.59,5.98 10.75,7.17 16.73,3.59 43,-29.86 90.79,-45.4 142.15,-47.78l0 35.83c0,7.17 4.78,11.95 11.95,11.95 125.43,0 226.97,101.54 226.97,226.97 0,7.16 4.78,11.94 11.94,11.94l35.84 0c-2.39,66.9 -29.86,127.82 -71.68,173.22l-25.08 -25.09c-4.78,-4.78 -11.95,-4.78 -16.73,0 -4.77,4.78 -4.77,11.95 0,16.73l25.09 25.08c-46.59,41.81 -106.32,69.29 -173.21,71.68l0 -35.84c0,-7.17 -4.78,-11.95 -11.95,-11.95 -7.16,0 -11.94,4.78 -11.94,11.95l0 35.84c-66.9,-2.39 -127.82,-29.87 -173.22,-71.68l25.09 -25.08c4.78,-4.78 4.78,-11.95 0,-16.73 -4.78,-4.78 -11.95,-4.78 -16.73,0l-25.08 25.09c-41.81,-46.59 -69.28,-106.32 -71.67,-173.22l35.83 0c7.17,0 11.95,-4.78 11.95,-11.94 0,-7.17 -4.78,-11.95 -11.95,-11.95l-38.22 0c2.39,-50.17 17.91,-97.95 45.39,-139.76 3.59,-5.98 2.39,-13.14 -3.58,-16.73 -5.98,-3.58 -13.14,-2.39 -16.73,3.59 -32.25,48.97 -48.98,106.31 -48.98,164.85 0,82.42 33.45,156.49 87.21,210.24 0,0 0,0 0,1.2 0,1.19 0,0 1.19,0 53.76,53.75 127.82,87.2 210.25,87.2 82.42,0 156.49,-33.45 210.24,-87.2zm-495.71 -557.87l-1.97 0c-1.33,0.13 -2.68,0.52 -4.04,1.2 -4.78,1.19 -7.17,5.97 -7.17,10.75l0 35.83 -35.83 0c-4.78,0 -9.56,2.39 -10.75,7.17 -1.2,4.78 -1.2,9.56 2.39,13.14l47.78 47.78c2.39,2.39 4.78,3.59 8.36,3.59l43.01 0 215.02 215.02 -19.11 0c-7.17,0 -11.95,4.78 -11.95,11.95 0,7.16 4.78,11.94 11.95,11.94l47.78 0c1.19,0 2.39,0 3.58,-1.19l1.2 0c1.19,0 1.19,-1.2 2.39,-1.2 0,0 1.19,0 1.19,-1.19 1.19,-1.2 1.19,-2.39 2.39,-3.58l0 0c0,-1.2 1.19,-2.39 1.19,-3.59l0 -47.78c0,-7.17 -4.77,-11.95 -11.94,-11.95 -7.17,0 -11.95,4.78 -11.95,11.95l0 19.11 -215.02 -215.02 0 -44.2c0,-3.58 -1.19,-5.97 -3.58,-8.36l-47.79 -47.78c-2.06,-2.06 -4.51,-3.33 -7.13,-3.59zm3.55 95.57l-23.89 -23.89 14.33 0 23.89 23.89 -14.33 0z"/>
   </g>
  </g>
 </g>
</svg>
