<?xml version="1.0" encoding="UTF-8"?>
<!DOCTYPE svg PUBLIC "-//W3C//DTD SVG 1.1//EN" "http://www.w3.org/Graphics/SVG/1.1/DTD/svg11.dtd">
<!-- Creator: CorelDRAW 2018 (64 Bit Versão de avaliação) -->
<svg xmlns="http://www.w3.org/2000/svg" xml:space="preserve" width="200px" height="200px" version="1.1" style="shape-rendering:geometricPrecision; text-rendering:geometricPrecision; image-rendering:optimizeQuality; fill-rule:evenodd; clip-rule:evenodd"
viewBox="0 0 41.15 41.15"
 xmlns:xlink="http://www.w3.org/1999/xlink">
 <defs>
  <style type="text/css">
   <![CDATA[
    .fil0 {fill:none}
    .fil1 {fill:#00F2A9;fill-rule:nonzero}
    .fil2 {fill:#0F4069;fill-rule:nonzero}
   ]]>
  </style>
 </defs>
 <g id="Camada_x0020_1">
  <metadata id="CorelCorpID_0Corel-Layer"/>
  <g id="_2590661974112">
   <rect class="fil0" width="41.15" height="41.15"/>
   <polygon class="fil1" points="9.8,35.79 19.94,35.79 19.94,28.18 9.8,28.18 "/>
   <path class="fil1" d="M28.81 12.97l-2.53 0c-0.7,0 -1.27,0.57 -1.27,1.27l0 1.26 5.07 5.07 0 -6.33c0,-0.7 -0.57,-1.27 -1.27,-1.27z"/>
   <path class="fil1" d="M28.18 4.1c0,0.35 -0.28,0.63 -0.63,0.63 -0.35,0 -0.64,-0.28 -0.64,-0.63 0,-0.35 0.29,-0.64 0.64,-0.64 0.35,0 0.63,0.29 0.63,0.64zm-2.53 0c0,1.04 0.85,1.9 1.9,1.9 1.04,0 1.9,-0.86 1.9,-1.9 0,-1.05 -0.86,-1.91 -1.9,-1.91 -1.05,0 -1.9,0.86 -1.9,1.91z"/>
   <path class="fil2" d="M36.42 9.8l-0.63 0 0 -0.63c0,-0.35 -0.29,-0.64 -0.64,-0.64 -0.35,0 -0.63,0.29 -0.63,0.64l0 0.63 -0.64 0c-0.35,0 -0.63,0.28 -0.63,0.63 0,0.35 0.28,0.64 0.63,0.64l0.64 0 0 0.63c0,0.35 0.28,0.64 0.63,0.64 0.35,0 0.64,-0.29 0.64,-0.64l0 -0.63 0.63 0c0.35,0 0.63,-0.29 0.63,-0.64 0,-0.35 -0.28,-0.63 -0.63,-0.63zm-4.44 27.25c0,0.35 -0.28,0.64 -0.63,0.64l-3.17 0 0 -9.51c0,-0.35 -0.28,-0.63 -0.63,-0.63l-5.07 0c-0.35,0 -0.64,0.28 -0.64,0.63l0 9.51 -13.31 0c-0.35,0 -0.63,-0.29 -0.63,-0.64l0 -15.21c0,-0.35 0.28,-0.63 0.63,-0.63l22.82 0c0.35,0 0.63,0.28 0.63,0.63l0 15.21zm-5.07 0.64l-3.8 0 0 -8.88 3.8 0 0 8.88zm-6.97 -28.9l4.62 4.63c0,0 0,0 0,0l5.07 5.07c0,0 0,0 0,0l1.46 1.45 -22.29 0 11.14 -11.15zm5.71 2.91c0,-0.35 0.28,-0.63 0.63,-0.63l2.53 0c0.35,0 0.64,0.28 0.64,0.63l0 4.81 -3.8 -3.8 0 -1.01zm7.6 10.4l1.45 1.46c0.13,0.12 0.29,0.18 0.45,0.18 0.16,0 0.33,-0.06 0.45,-0.18 0.25,-0.25 0.25,-0.65 0,-0.9l-4.88 -4.88 0 -6.08c0,-1.05 -0.86,-1.9 -1.91,-1.9l-2.53 0c-0.97,0 -1.76,0.73 -1.88,1.66l-4.01 -4.01c-0.25,-0.25 -0.65,-0.25 -0.9,0l-15.21 15.21c-0.25,0.25 -0.25,0.65 0,0.9 0.25,0.25 0.65,0.25 0.9,0l1.45 -1.46 0 14.95c0,1.05 0.85,1.91 1.9,1.91l22.82 0c1.05,0 1.9,-0.86 1.9,-1.91l0 -14.95zm-13.94 10.52l-8.88 0 0 -6.34 8.88 0 0 6.34zm0.63 -7.61l-10.14 0c-0.35,0 -0.63,0.28 -0.63,0.64l0 7.6c0,0.35 0.28,0.63 0.63,0.63l10.14 0c0.35,0 0.63,-0.28 0.63,-0.63l0 -7.6c0,-0.36 -0.28,-0.64 -0.63,-0.64z"/>
  </g>
 </g>
</svg>
