<?xml version="1.0" encoding="UTF-8"?>
<!DOCTYPE svg PUBLIC "-//W3C//DTD SVG 1.1//EN" "http://www.w3.org/Graphics/SVG/1.1/DTD/svg11.dtd">
<!-- Creator: CorelDRAW 2018 (64 Bit Versão de avaliação) -->
<svg xmlns="http://www.w3.org/2000/svg" xml:space="preserve" width="200px" height="200px" version="1.1" style="shape-rendering:geometricPrecision; text-rendering:geometricPrecision; image-rendering:optimizeQuality; fill-rule:evenodd; clip-rule:evenodd"
viewBox="0 0 81.4 81.4"
 xmlns:xlink="http://www.w3.org/1999/xlink">
 <defs>
  <style type="text/css">
   <![CDATA[
    .fil0 {fill:none}
    .fil1 {fill:#00F2A9;fill-rule:nonzero}
    .fil2 {fill:#0F4069;fill-rule:nonzero}
   ]]>
  </style>
 </defs>
 <g id="Camada_x0020_1">
  <metadata id="CorelCorpID_0Corel-Layer"/>
  <g id="_2590435736400">
   <rect class="fil0" width="81.4" height="81.4"/>
   <g>
    <path class="fil1" d="M56.02 18.82c1.2,0 2.18,-0.98 2.18,-2.19 0,-1.2 -0.98,-2.18 -2.18,-2.18l-30.63 0c-1.21,0 -2.19,0.98 -2.19,2.18 0,1.21 0.98,2.19 2.19,2.19l2.18 0 -13.12 17.5c0,2.41 1.96,4.38 4.37,4.38 2.41,0 4.38,-1.97 4.38,-4.38 0,2.41 1.97,4.38 4.37,4.38 2.41,0 4.38,-1.97 4.38,-4.38 0,2.41 1.97,4.38 4.38,4.38 2.4,0 4.37,-1.97 4.37,-4.38 0,2.41 1.97,4.38 4.38,4.38 2.4,0 4.37,-1.97 4.37,-4.38 0,2.41 1.97,4.38 4.38,4.38 2.41,0 4.37,-1.97 4.37,-4.38 0,2.41 1.97,4.38 4.38,4.38 2.41,0 4.38,-1.97 4.38,-4.38l-13.13 -17.5 2.19 0z"/>
    <path class="fil2" d="M12.26 68.05l56.88 0c0.66,0 1.1,0.44 1.1,1.09 0,0.66 -0.44,1.1 -1.1,1.1l-56.88 0c-0.66,0 -1.1,-0.44 -1.1,-1.1 0,-0.65 0.44,-1.09 1.1,-1.09zm41.57 -6.56l-8.75 0c-0.66,0 -1.1,0.43 -1.1,1.09 0,0.66 0.44,1.09 1.1,1.09l8.75 0c0.66,0 1.09,-0.43 1.09,-1.09 0,-0.66 -0.43,-1.09 -1.09,-1.09zm-21.88 -14.23c1.21,0 2.19,0.98 2.19,2.19 0,1.21 -0.98,2.19 -2.19,2.19 -1.21,0 -2.19,-0.98 -2.19,-2.19 0,-1.21 0.98,-2.19 2.19,-2.19zm21.11 1.43l-4.37 4.37c-0.44,0.44 -0.44,1.1 0,1.53 0.22,0.22 0.54,0.33 0.76,0.33 0.22,0 0.55,-0.11 0.77,-0.33l4.37 -4.37c0.44,-0.44 0.44,-1.1 0,-1.53 -0.43,-0.44 -1.09,-0.44 -1.53,0zm-7.98 1.86c0.33,0 0.54,-0.11 0.76,-0.33l4.38 -4.38c0.44,-0.43 0.44,-1.09 0,-1.53 -0.44,-0.44 -1.1,-0.44 -1.53,0l-4.38 4.38c-0.44,0.43 -0.44,1.09 0,1.53 0.22,0.22 0.44,0.33 0.77,0.33zm0 4.37c0.33,0 0.54,-0.11 0.76,-0.33l8.75 -8.75c0.44,-0.43 0.44,-1.09 0,-1.53 -0.43,-0.44 -1.09,-0.44 -1.53,0l-8.75 8.75c-0.44,0.44 -0.44,1.1 0,1.53 0.22,0.22 0.44,0.33 0.77,0.33zm12.03 2.19l-15.31 0 0 -15.31 15.31 0 0 15.31zm1.09 -17.5l-17.5 0c-0.66,0 -1.09,0.43 -1.09,1.09l0 17.5c0,0.66 0.43,1.1 1.09,1.1l17.5 0c0.66,0 1.1,-0.44 1.1,-1.1l0 -17.5c0,-0.66 -0.44,-1.09 -1.1,-1.09zm-22.97 21.88l-10.94 0 0 -19.69 10.94 0 0 19.69zm1.1 -21.88l-13.13 0c-0.66,0 -1.1,0.43 -1.1,1.09l0 21.88c0,0.66 0.44,1.09 1.1,1.09l13.13 0c0.65,0 1.09,-0.43 1.09,-1.09l0 -21.88c0,-0.66 -0.44,-1.09 -1.09,-1.09zm-16.41 -2.3c1.31,-0.33 2.51,-1.09 3.28,-2.08 0.98,1.31 2.62,2.19 4.37,2.19 1.75,0 3.39,-0.88 4.38,-2.19 0.98,1.31 2.62,2.19 4.38,2.19 1.75,0 3.39,-0.88 4.37,-2.19 0.99,1.31 2.63,2.19 4.38,2.19 1.75,0 3.39,-0.88 4.37,-2.19 0.99,1.31 2.63,2.19 4.38,2.19 1.75,0 3.39,-0.88 4.37,-2.19 0.77,1.09 1.97,1.86 3.29,2.08l0 28.55 -41.57 0 0 -28.55zm-4.16 -4.27l3.06 0c0.66,0 1.1,-0.43 1.1,-1.09 0,-0.66 -0.44,-1.1 -1.1,-1.1l-2.19 0 11.49 -15.31 2.08 0 -7.99 15.97 0 0c-0.11,0.11 -0.11,0.22 -0.11,0.44 0,1.86 -1.42,3.28 -3.28,3.28 -1.42,0 -2.62,-0.87 -3.06,-2.19zm41.13 0c-0.44,1.32 -1.64,2.19 -3.06,2.19 -1.42,0 -2.63,-0.87 -3.06,-2.19l6.12 0zm-6.56 -2.19l-3.83 -15.31 2.3 0 7.65 15.31 -6.12 0zm-5.25 0l-3.28 0 0 -15.31 2.4 0 4.16 16.52c0,1.75 -1.53,3.17 -3.28,3.17 -1.43,0 -2.63,-0.87 -3.07,-2.19l3.07 0c0.65,0 1.09,-0.43 1.09,-1.09 0,-0.66 -0.44,-1.1 -1.09,-1.1zm-8.75 0l-2.96 0 3.83 -15.31 2.41 0 0 16.41c0,1.86 -1.43,3.28 -3.28,3.28 -1.43,0 -2.63,-0.87 -3.07,-2.19l3.07 0c0.65,0 1.09,-0.43 1.09,-1.09 0,-0.66 -0.44,-1.1 -1.09,-1.1zm-5.69 2.19c-0.44,1.32 -1.64,2.19 -3.07,2.19 -1.42,0 -2.62,-0.87 -3.06,-2.19l6.13 0zm4.26 -17.5l-3.83 15.31 -6.12 0 7.66 -15.31 2.29 0zm-10.61 -3.28c0,-0.66 0.44,-1.1 1.1,-1.1l30.63 0c0.65,0 1.09,0.44 1.09,1.1 0,0.65 -0.44,1.09 -1.09,1.09l-2.3 0c-0.11,0 -0.11,0 -0.22,0 -0.11,0 -0.11,0.11 -0.22,0.11l-0.11 0c0,0 0,0 0,0.11 -0.11,0 -0.11,0.11 -0.11,0.22l-0.11 0.11c0,0.11 0,0.11 -0.11,0.22 0,0.11 0,0.11 0,0.22 0,0 0,0 0,0.11l0 0.1c0,0.11 0,0.11 0,0.22 0,0.11 0.11,0.11 0.11,0.22l0 0.11 12.91 17.18c-0.11,1.64 -1.53,2.95 -3.28,2.95 -1.42,0 -2.62,-0.87 -3.06,-2.19l3.06 0c0.66,0 1.09,-0.43 1.09,-1.09 0,-0.66 -0.43,-1.1 -1.09,-1.1l-3.72 0 -8.42 -16.84c-0.22,-0.44 -0.55,-0.66 -0.99,-0.66l-4.37 0 -19.69 0c-0.66,0 -1.1,-0.44 -1.1,-1.09zm-12.03 60.17l56.88 0c1.86,0 3.29,-1.43 3.29,-3.29 0,-1.86 -1.43,-3.28 -3.29,-3.28l-5.47 0 0 -28.55c2.41,-0.55 4.27,-2.63 4.38,-5.14l0 -0.22c0,-0.11 0,-0.11 0,-0.22 0,-0.11 -0.11,-0.11 -0.11,-0.22l0 -0.11 -11.92 -15.86 0 0c1.86,0 3.28,-1.42 3.28,-3.28 0,-1.86 -1.42,-3.28 -3.28,-3.28l-30.63 0c-1.86,0 -3.29,1.42 -3.29,3.28 0,1.86 1.43,3.28 3.29,3.28l0 0 -11.82 15.75c0,0.11 -0.11,0.11 -0.11,0.22 0,0 0,0 0,0.11 -0.11,0 -0.11,0.11 -0.11,0.33l0 0c0,0.11 0,0.11 0,0.22l0 0c0.11,2.51 1.97,4.7 4.38,5.14l0 28.55 -5.47 0c-1.86,0 -3.28,1.42 -3.28,3.28 0,1.86 1.42,3.29 3.28,3.29z"/>
   </g>
  </g>
 </g>
</svg>
